<svg width="737" height="228" viewBox="0 0 737 228" fill="none" xmlns="http://www.w3.org/2000/svg">
<path d="M518.767 117.34C519.15 117.245 519.508 117.068 519.815 116.819C520.122 116.571 520.372 116.259 520.545 115.903C520.719 115.548 520.813 115.159 520.82 114.764C520.827 114.368 520.748 113.976 520.588 113.615L527.591 107.047L522.746 105.88L516.839 112.295C516.251 112.605 515.798 113.121 515.563 113.744C515.329 114.367 515.331 115.055 515.569 115.676C515.807 116.298 516.263 116.811 516.853 117.118C517.442 117.424 518.124 117.503 518.767 117.34V117.34Z" fill="#FFB6B6"/>
<path d="M522.385 112.05L519.119 107.433L531.386 94.7103L534.234 74.6566C534.375 73.6653 534.732 72.7173 535.279 71.8799C535.826 71.0424 536.551 70.336 537.401 69.8109C538.251 69.2857 539.206 68.9547 540.198 68.8413C541.19 68.7278 542.195 68.8348 543.141 69.1546C544.85 69.7341 546.259 70.9695 547.06 72.5897C547.862 74.2099 547.989 76.0827 547.415 77.797L540.148 99.4173L522.385 112.05Z" fill="#E4E4E4"/>
<path d="M545.418 197.497H541.793L540.068 183.475L545.419 183.475L545.418 197.497Z" fill="#FFB6B6"/>
<path d="M547.368 204.399H544.796L544.337 201.964L543.16 204.399H536.338C536.01 204.399 535.692 204.295 535.429 204.1C535.165 203.906 534.971 203.632 534.873 203.319C534.776 203.006 534.781 202.67 534.888 202.36C534.994 202.05 535.197 201.782 535.466 201.596L540.915 197.822V195.36L546.646 195.703L547.368 204.399Z" fill="#2F2E41"/>
<path d="M567.785 193.798L564.6 195.535L556.401 184.045L561.101 181.48L567.785 193.798Z" fill="#FFB6B6"/>
<path d="M572.788 198.926L570.528 200.159L568.964 198.24L569.092 200.942L563.099 204.213C562.812 204.369 562.482 204.43 562.158 204.386C561.834 204.341 561.533 204.194 561.298 203.966C561.063 203.737 560.907 203.44 560.853 203.116C560.799 202.793 560.849 202.46 560.997 202.168L563.984 196.242L562.811 194.079L568.008 191.634L572.788 198.926Z" fill="#2F2E41"/>
<path d="M546.945 192.504H539.453V165.751L534.814 148.309C531.485 135.836 530.601 122.834 532.209 110.023L532.216 109.971L532.256 109.937C532.375 109.837 544.247 99.9938 551.756 107.524C556.817 112.599 552.061 130.849 551.795 131.851V163.312L546.945 192.504Z" fill="#2F2E41"/>
<path d="M546.927 66.3601L546.887 66.3203L537.334 66.4661L532.234 78.4701C527.512 85.8235 532.027 90.0059 532.344 90.6684L531.441 99.6912L530.86 105.512L529.926 114.884L551.82 107.712L549.384 97.9291L552.199 83.8184C552.824 80.6981 552.669 77.4713 551.75 74.4252C550.83 71.3792 549.173 68.6086 546.927 66.3601V66.3601Z" fill="#E4E4E4"/>
<path d="M542.476 165.889L557.867 187.597L563.771 183.388L550.917 156.9L542.476 165.889Z" fill="#2F2E41"/>
<path d="M541.218 64.0272C546.089 64.0272 550.037 60.0677 550.037 55.1835C550.037 50.2993 546.089 46.3398 541.218 46.3398C536.347 46.3398 532.398 50.2993 532.398 55.1835C532.398 60.0677 536.347 64.0272 541.218 64.0272Z" fill="#FFB6B6"/>
<path opacity="0.1" d="M549.723 89.3965L540.104 100.526L530.859 105.512L531.441 99.6913L536.885 96.6263L549.723 89.3965Z" fill="black"/>
<path d="M535.041 71.7568L534.213 68.1207C533.942 66.9039 533.915 65.6448 534.136 64.4176C534.357 63.1904 534.821 62.02 535.5 60.9752C536.123 59.9902 536.471 58.8549 536.506 57.6886C536.541 56.5224 536.262 55.3681 535.699 54.3473C535.283 53.522 534.651 52.8257 533.871 52.3329C533.091 51.8401 532.191 51.5693 531.27 51.5497H531.049V51.3288C531.049 48.1577 533.514 45.9195 535.805 45.7912C535.888 45.1313 536.355 44.5398 537.167 44.0701C539.107 42.9485 542.858 42.7053 545.692 44.2002C545.745 43.7168 545.926 43.2567 546.219 42.8686C546.511 42.4804 546.902 42.1788 547.351 41.9956C547.817 41.8332 548.318 41.8043 548.799 41.9121C548.841 41.1171 549.168 40.3641 549.721 39.7927C550.503 39.0323 551.759 38.7434 553.165 38.9983C555.097 39.3498 557.001 40.5837 558.527 42.4732C559.879 44.1484 560.818 46.1226 561.726 48.0318C562.619 49.9094 563.542 51.8509 564.881 53.4948C566.347 55.2957 568.164 56.4625 569.997 56.7804C572.134 57.1513 574.328 56.2689 575.332 54.6351L575.531 54.3108L575.713 54.6455C576.84 56.7235 576.379 59.5789 574.615 61.4348C573.034 63.0993 570.552 63.9473 567.978 63.701C565.799 63.4933 563.601 62.5647 561.446 60.9416C559.305 59.3294 557.981 57.5473 557.51 55.6446C557.379 55.0559 557.284 54.4595 557.228 53.8588C557.082 52.6007 556.944 51.4123 556.172 50.5376C555.479 49.7512 554.405 49.4104 553.453 49.1529L553.266 49.1027C553.232 49.457 553.122 49.7997 552.942 50.1067C552.762 50.4137 552.518 50.6777 552.226 50.8803C552.051 50.986 551.858 51.0603 551.658 51.0998C552.761 55.5541 552.308 58.9643 550.308 61.2379C546.932 65.0762 540.445 64.2867 540.171 64.2516L539.988 64.2278L539.979 64.0435C539.954 63.5486 539.894 63.0563 539.798 62.5702C538.869 64.8149 535.744 70.7506 535.326 71.3492L535.041 71.7568Z" fill="#2F2E41"/>
<path d="M223.585 86.0367C223.327 86.3768 222.998 86.6561 222.621 86.8549C222.244 87.0537 221.828 87.1672 221.402 87.1873C220.977 87.2074 220.552 87.1337 220.158 86.9714C219.763 86.809 219.41 86.562 219.121 86.2477L209.623 90.39L210.548 85.0732L219.426 81.9547C219.984 81.5035 220.689 81.2734 221.405 81.3081C222.122 81.3428 222.801 81.6399 223.314 82.1431C223.826 82.6462 224.137 83.3205 224.187 84.0381C224.237 84.7557 224.023 85.4668 223.585 86.0367V86.0367Z" fill="#A0616A"/>
<path d="M217.246 87.6967L195.185 97.5506L195.138 97.5336L169.993 88.5488C168.12 87.5673 166.692 85.905 166.002 83.9022C165.311 81.8995 165.411 79.7078 166.279 77.7759V77.7759C166.76 76.7085 167.462 75.7555 168.337 74.9795C169.212 74.2035 170.241 73.6222 171.357 73.2738C172.472 72.9254 173.648 72.8178 174.808 72.9582C175.968 73.0985 177.085 73.4836 178.086 74.088L196.798 85.3909L214.943 83.0328L217.246 87.6967Z" fill="#3F3D56"/>
<path d="M239.275 154.086H453.85V29.5203C453.849 28.5869 453.478 27.6922 452.82 27.0322C452.162 26.3723 451.27 26.0011 450.339 26H242.786C241.855 26.0011 240.963 26.3723 240.305 27.0322C239.647 27.6922 239.276 28.5869 239.275 29.5203V154.086Z" fill="#3F3D56"/>
<path d="M447.22 30.8691H245.905V145.473H447.22V30.8691Z" fill="white"/>
<path d="M239.089 150.715V166.087C239.089 166.724 239.214 167.355 239.457 167.944C239.7 168.533 240.057 169.068 240.506 169.518C240.956 169.969 241.489 170.326 242.076 170.57C242.663 170.814 243.293 170.939 243.928 170.939H323.126V201.276H322.074C321.991 201.276 321.909 201.292 321.833 201.324C321.757 201.355 321.688 201.402 321.629 201.46C321.571 201.519 321.525 201.588 321.493 201.665C321.461 201.741 321.445 201.823 321.445 201.906V204.016C321.445 204.099 321.461 204.181 321.493 204.257C321.525 204.334 321.571 204.403 321.629 204.462C321.688 204.52 321.757 204.567 321.833 204.598C321.909 204.63 321.991 204.646 322.074 204.646H371.239C371.321 204.646 371.403 204.63 371.479 204.598C371.555 204.567 371.625 204.52 371.683 204.462C371.742 204.403 371.788 204.334 371.819 204.257C371.851 204.181 371.867 204.099 371.867 204.016V201.906C371.867 201.823 371.851 201.741 371.819 201.665C371.788 201.588 371.742 201.519 371.683 201.46C371.625 201.402 371.555 201.355 371.479 201.324C371.403 201.292 371.321 201.276 371.239 201.276H370.187V170.939H449.384C450.02 170.939 450.649 170.814 451.236 170.57C451.823 170.326 452.357 169.969 452.806 169.518C453.255 169.068 453.612 168.533 453.855 167.944C454.098 167.355 454.223 166.724 454.223 166.087V150.715L239.089 150.715Z" fill="#3F3D56"/>
<path d="M308.504 87.5447H259.445C259.103 87.5443 258.776 87.408 258.534 87.1656C258.292 86.9232 258.156 86.5945 258.156 86.2517V66.2911C258.156 65.9483 258.292 65.6196 258.534 65.3772C258.776 65.1348 259.103 64.9984 259.445 64.998H308.504C308.846 64.9984 309.174 65.1348 309.416 65.3772C309.657 65.6196 309.793 65.9483 309.794 66.2911V86.2517C309.793 86.5945 309.657 86.9232 309.416 87.1656C309.174 87.408 308.846 87.5443 308.504 87.5447V87.5447Z" fill="#35BB78"/>
<path d="M303.833 97.1196H264.116C263.706 97.1196 263.312 96.9561 263.022 96.6651C262.732 96.3741 262.569 95.9795 262.569 95.5679C262.569 95.1564 262.732 94.7618 263.022 94.4708C263.312 94.1798 263.706 94.0163 264.116 94.0163H303.833C305.828 93.9884 305.848 97.1478 303.833 97.1196Z" fill="#E4E4E4"/>
<path d="M303.833 104.231H264.116C263.706 104.231 263.312 104.068 263.022 103.777C262.732 103.486 262.569 103.091 262.569 102.68C262.569 102.268 262.732 101.874 263.022 101.583C263.312 101.292 263.706 101.128 264.116 101.128H303.833C305.828 101.1 305.848 104.26 303.833 104.231Z" fill="#E4E4E4"/>
<path d="M303.833 111.343H264.116C263.706 111.343 263.312 111.18 263.022 110.889C262.732 110.598 262.569 110.203 262.569 109.792C262.569 109.38 262.732 108.985 263.022 108.694C263.312 108.403 263.706 108.24 264.116 108.24H303.833C305.828 108.212 305.848 111.371 303.833 111.343Z" fill="#E4E4E4"/>
<path d="M371.092 87.5447H322.033C321.691 87.5443 321.364 87.408 321.122 87.1656C320.88 86.9232 320.744 86.5945 320.744 86.2517V66.2911C320.744 65.9483 320.88 65.6196 321.122 65.3772C321.364 65.1348 321.691 64.9984 322.033 64.998H371.092C371.434 64.9984 371.762 65.1348 372.004 65.3772C372.245 65.6196 372.381 65.9483 372.382 66.2911V86.2517C372.381 86.5945 372.245 86.9232 372.004 87.1656C371.762 87.408 371.434 87.5443 371.092 87.5447V87.5447Z" fill="#35BB78"/>
<path d="M366.421 97.1196H326.705C326.294 97.1196 325.901 96.9561 325.61 96.6651C325.32 96.3741 325.157 95.9795 325.157 95.5679C325.157 95.1564 325.32 94.7618 325.61 94.4708C325.901 94.1798 326.294 94.0163 326.705 94.0163H366.421C368.417 93.9884 368.437 97.1478 366.421 97.1196Z" fill="#E4E4E4"/>
<path d="M366.421 104.231H326.705C326.294 104.231 325.901 104.068 325.61 103.777C325.32 103.486 325.157 103.091 325.157 102.68C325.157 102.268 325.32 101.874 325.61 101.583C325.901 101.292 326.294 101.128 326.705 101.128H366.421C368.417 101.1 368.437 104.26 366.421 104.231Z" fill="#E4E4E4"/>
<path d="M366.421 111.343H326.705C326.294 111.343 325.901 111.18 325.61 110.889C325.32 110.598 325.157 110.203 325.157 109.792C325.157 109.38 325.32 108.985 325.61 108.694C325.901 108.403 326.294 108.24 326.705 108.24H366.421C368.417 108.212 368.437 111.371 366.421 111.343Z" fill="#E4E4E4"/>
<path d="M433.68 87.5447H384.621C384.279 87.5443 383.951 87.408 383.709 87.1656C383.467 86.9232 383.331 86.5945 383.331 86.2517V66.2911C383.331 65.9483 383.467 65.6196 383.709 65.3772C383.951 65.1348 384.279 64.9984 384.621 64.998H433.68C434.022 64.9984 434.349 65.1348 434.591 65.3772C434.833 65.6196 434.969 65.9483 434.969 66.2911V86.2517C434.969 86.5945 434.833 86.9232 434.591 87.1656C434.349 87.408 434.022 87.5443 433.68 87.5447V87.5447Z" fill="#35BB78"/>
<path d="M429.008 97.1196H389.292C388.882 97.1196 388.488 96.9561 388.198 96.6651C387.908 96.3741 387.745 95.9795 387.745 95.5679C387.745 95.1564 387.908 94.7618 388.198 94.4708C388.488 94.1798 388.882 94.0163 389.292 94.0163H429.008C431.004 93.9884 431.024 97.1478 429.008 97.1196Z" fill="#E4E4E4"/>
<path d="M429.009 104.231H389.292C388.882 104.231 388.489 104.067 388.2 103.776C387.91 103.485 387.748 103.091 387.748 102.68C387.748 102.269 387.91 101.874 388.2 101.584C388.489 101.293 388.882 101.129 389.292 101.128H429.009C431.004 101.1 431.024 104.26 429.009 104.231Z" fill="#E4E4E4"/>
<path d="M429.008 111.343H389.292C388.882 111.343 388.488 111.18 388.198 110.889C387.908 110.598 387.745 110.203 387.745 109.792C387.745 109.38 387.908 108.985 388.198 108.694C388.488 108.403 388.882 108.24 389.292 108.24H429.008C431.004 108.212 431.024 111.371 429.008 111.343Z" fill="#E4E4E4"/>
<path d="M517.511 65.2673L517.645 90.2862L518.192 90.2553L518.712 99.518L517.696 99.5737L517.725 105.138L518.537 105.122L518.702 114.393L517.777 114.41L518.217 196.051C518.227 198.189 517.39 200.243 515.891 201.763C514.392 203.283 512.352 204.144 510.221 204.158L420.283 204.646C418.151 204.656 416.102 203.817 414.587 202.314C413.071 200.811 412.212 198.766 412.199 196.628L411.492 65.844C411.483 63.7063 412.319 61.652 413.819 60.1322C415.318 58.6124 417.357 57.751 419.489 57.7373L509.427 57.2486C511.558 57.2398 513.606 58.079 515.122 59.5822C516.637 61.0853 517.497 63.1298 517.511 65.2673V65.2673Z" fill="#3F3D56"/>
<path d="M510.351 199.014L420.097 199.505C419.439 199.508 418.808 199.249 418.341 198.786C417.874 198.323 417.609 197.692 417.605 197.033L416.893 65.3802C416.89 64.7213 417.148 64.0882 417.61 63.6197C418.072 63.1513 418.701 62.8857 419.358 62.8814L509.612 62.3906C510.269 62.3878 510.9 62.6465 511.368 63.1099C511.835 63.5733 512.099 64.2036 512.104 64.8625L512.816 196.516C512.819 197.175 512.561 197.808 512.098 198.276C511.636 198.745 511.008 199.01 510.351 199.014V199.014Z" fill="white"/>
<path d="M464.128 60.6486C464.506 60.6486 464.812 60.3415 464.812 59.9627C464.812 59.5839 464.506 59.2769 464.128 59.2769C463.751 59.2769 463.444 59.5839 463.444 59.9627C463.444 60.3415 463.751 60.6486 464.128 60.6486Z" fill="white"/>
<path d="M490.973 99.4468H438.736C438.372 99.4463 438.023 99.3012 437.766 99.0431C437.509 98.785 437.364 98.435 437.363 98.07V76.8167C437.364 76.4517 437.509 76.1018 437.766 75.8437C438.023 75.5856 438.372 75.4404 438.736 75.4399H490.973C491.337 75.4404 491.686 75.5855 491.943 75.8436C492.2 76.1018 492.345 76.4517 492.346 76.8167V98.07C492.345 98.435 492.2 98.785 491.943 99.0431C491.686 99.3012 491.337 99.4464 490.973 99.4468V99.4468Z" fill="#35BB78"/>
<path d="M485.999 109.642H443.71C443.273 109.642 442.854 109.468 442.545 109.158C442.236 108.848 442.062 108.428 442.062 107.99C442.062 107.552 442.236 107.131 442.545 106.821C442.854 106.512 443.273 106.338 443.71 106.338H485.999C488.123 106.308 488.145 109.672 485.999 109.642Z" fill="#E4E4E4"/>
<path d="M485.999 117.214H443.71C443.274 117.213 442.855 117.039 442.547 116.729C442.239 116.419 442.065 116 442.065 115.562C442.065 115.124 442.239 114.704 442.547 114.395C442.855 114.085 443.274 113.911 443.71 113.91H485.999C488.124 113.88 488.145 117.244 485.999 117.214Z" fill="#E4E4E4"/>
<path d="M485.999 124.786H443.71C443.273 124.786 442.854 124.612 442.545 124.302C442.236 123.993 442.062 123.572 442.062 123.134C442.062 122.696 442.236 122.276 442.545 121.966C442.854 121.656 443.273 121.482 443.71 121.482H485.999C488.123 121.452 488.145 124.816 485.999 124.786Z" fill="#E4E4E4"/>
<path d="M490.973 161.116H438.736C438.372 161.116 438.023 160.971 437.766 160.712C437.509 160.454 437.364 160.104 437.363 159.739V138.486C437.364 138.121 437.509 137.771 437.766 137.513C438.023 137.255 438.372 137.11 438.736 137.109H490.973C491.337 137.11 491.686 137.255 491.943 137.513C492.2 137.771 492.345 138.121 492.346 138.486V159.739C492.345 160.104 492.2 160.454 491.943 160.713C491.686 160.971 491.337 161.116 490.973 161.116V161.116Z" fill="#35BB78"/>
<path d="M485.999 171.311H443.71C443.273 171.311 442.854 171.137 442.545 170.827C442.236 170.518 442.062 170.097 442.062 169.659C442.062 169.221 442.236 168.801 442.545 168.491C442.854 168.181 443.273 168.007 443.71 168.007H485.999C488.123 167.977 488.145 171.341 485.999 171.311Z" fill="#E4E4E4"/>
<path d="M485.999 178.884H443.71C443.274 178.883 442.855 178.708 442.547 178.399C442.239 178.089 442.065 177.669 442.065 177.231C442.065 176.794 442.239 176.374 442.547 176.064C442.855 175.754 443.274 175.58 443.71 175.579H485.999C488.124 175.55 488.145 178.914 485.999 178.884Z" fill="#E4E4E4"/>
<path d="M485.999 186.456H443.71C443.273 186.456 442.854 186.282 442.545 185.972C442.236 185.662 442.062 185.242 442.062 184.804C442.062 184.366 442.236 183.945 442.545 183.635C442.854 183.326 443.273 183.152 443.71 183.152H485.999C488.123 183.122 488.145 186.486 485.999 186.456Z" fill="#E4E4E4"/>
<path d="M258.88 198.222L258.706 126.121L259.362 126.12L259.33 112.859L258.675 112.86L258.621 90.7232C258.619 89.8964 258.455 89.0781 258.137 88.315C257.82 87.5519 257.356 86.8589 256.771 86.2757C256.187 85.6925 255.494 85.2304 254.731 84.9158C253.969 84.6013 253.152 84.4404 252.327 84.4424L205.603 84.5555C204.778 84.5575 203.962 84.7223 203.201 85.0405C202.44 85.3587 201.749 85.8241 201.167 86.4102C200.586 86.9962 200.125 87.6914 199.811 88.456C199.497 89.2206 199.337 90.0397 199.339 90.8665L199.376 106.302L198.332 106.328L198.563 115.6L199.398 115.579L199.403 117.625L198.514 117.647L198.745 126.919L199.426 126.902L199.598 198.366C199.598 199.193 199.762 200.012 200.079 200.776C200.395 201.54 200.859 202.233 201.444 202.817C202.029 203.4 202.723 203.862 203.486 204.176C204.249 204.49 205.067 204.65 205.892 204.647L252.616 204.534C254.281 204.528 255.875 203.86 257.05 202.677C258.224 201.493 258.882 199.892 258.88 198.222Z" fill="#3F3D56"/>
<path d="M204.463 201.761C203.88 201.551 203.376 201.167 203.019 200.659C202.662 200.152 202.47 199.547 202.468 198.926L202.206 90.2923C202.204 89.4922 202.519 88.7241 203.082 88.157C203.645 87.5899 204.41 87.2702 205.207 87.2682L215.149 87.2441L215.026 87.5486C214.812 88.0771 214.732 88.6502 214.791 89.2173C214.85 89.7845 215.048 90.3283 215.366 90.8008C215.685 91.2734 216.114 91.6601 216.617 91.9271C217.119 92.194 217.68 92.333 218.248 92.3316L240.311 92.2782C240.861 92.2302 241.391 92.0532 241.859 91.7616C242.327 91.47 242.721 91.072 243.007 90.5997C243.289 90.1355 243.458 89.6109 243.5 89.0688C243.542 88.5267 243.455 87.9824 243.247 87.4804L243.122 87.1764L253.391 87.1514C254.189 87.1505 254.954 87.4669 255.52 88.0311C256.085 88.5954 256.404 89.3614 256.407 90.1612L256.657 193.807C256.66 195.929 255.822 197.966 254.329 199.47C252.836 200.974 250.809 201.823 248.693 201.831L205.484 201.936C205.136 201.937 204.791 201.878 204.463 201.761V201.761Z" fill="white"/>
<path d="M221.484 89.819C221.862 89.819 222.168 89.5119 222.168 89.1331C222.168 88.7544 221.862 88.4473 221.484 88.4473C221.107 88.4473 220.8 88.7544 220.8 89.1331C220.8 89.5119 221.107 89.819 221.484 89.819Z" fill="white"/>
<path d="M247.925 123.206H212.427C212.179 123.205 211.942 123.107 211.767 122.931C211.592 122.756 211.494 122.518 211.494 122.27V107.827C211.494 107.579 211.592 107.341 211.767 107.165C211.942 106.99 212.179 106.891 212.427 106.891H247.925C248.173 106.891 248.41 106.99 248.585 107.165C248.76 107.341 248.858 107.579 248.858 107.827V122.27C248.858 122.518 248.76 122.756 248.585 122.931C248.41 123.107 248.173 123.205 247.925 123.206V123.206Z" fill="#35BB78"/>
<path d="M244.545 130.134H215.807C215.66 130.134 215.514 130.105 215.378 130.049C215.242 129.993 215.118 129.91 215.014 129.806C214.91 129.701 214.827 129.578 214.77 129.441C214.714 129.305 214.685 129.159 214.685 129.011C214.685 128.863 214.714 128.717 214.77 128.581C214.827 128.445 214.91 128.321 215.014 128.216C215.118 128.112 215.242 128.029 215.378 127.973C215.514 127.917 215.66 127.888 215.807 127.888H244.545C245.989 127.868 246.004 130.154 244.545 130.134Z" fill="#E4E4E4"/>
<path d="M244.545 135.28H215.807C215.51 135.28 215.225 135.162 215.015 134.951C214.805 134.74 214.688 134.455 214.688 134.157C214.688 133.859 214.805 133.574 215.015 133.363C215.225 133.153 215.51 133.034 215.807 133.034H244.545C245.989 133.014 246.004 135.3 244.545 135.28Z" fill="#E4E4E4"/>
<path d="M244.545 140.426H215.807C215.66 140.426 215.514 140.397 215.378 140.341C215.242 140.285 215.118 140.202 215.014 140.098C214.91 139.993 214.827 139.87 214.77 139.733C214.714 139.597 214.685 139.451 214.685 139.303C214.685 139.155 214.714 139.009 214.77 138.873C214.827 138.737 214.91 138.613 215.014 138.508C215.118 138.404 215.242 138.321 215.378 138.265C215.514 138.209 215.66 138.18 215.807 138.18H244.545C245.989 138.16 246.004 140.446 244.545 140.426Z" fill="#E4E4E4"/>
<path d="M247.925 166.487H212.427C212.179 166.487 211.942 166.388 211.767 166.212C211.592 166.037 211.494 165.799 211.494 165.551V151.108C211.494 150.86 211.592 150.622 211.767 150.447C211.942 150.271 212.179 150.173 212.427 150.172H247.925C248.173 150.173 248.41 150.271 248.585 150.447C248.76 150.622 248.858 150.86 248.858 151.108V165.551C248.858 165.799 248.76 166.037 248.585 166.212C248.41 166.388 248.173 166.487 247.925 166.487Z" fill="#35BB78"/>
<path d="M244.545 173.416H215.807C215.66 173.416 215.514 173.387 215.378 173.331C215.242 173.274 215.118 173.192 215.014 173.087C214.91 172.983 214.827 172.859 214.77 172.723C214.714 172.587 214.685 172.44 214.685 172.293C214.685 172.145 214.714 171.999 214.77 171.863C214.827 171.726 214.91 171.602 215.014 171.498C215.118 171.394 215.242 171.311 215.378 171.255C215.514 171.199 215.66 171.17 215.807 171.17H244.545C245.989 171.15 246.004 173.436 244.545 173.416Z" fill="#E4E4E4"/>
<path d="M244.545 178.562H215.807C215.51 178.562 215.225 178.443 215.015 178.233C214.805 178.022 214.688 177.737 214.688 177.439C214.688 177.141 214.805 176.855 215.015 176.645C215.225 176.434 215.51 176.316 215.807 176.316H244.545C245.989 176.296 246.004 178.582 244.545 178.562Z" fill="#E4E4E4"/>
<path d="M244.545 183.707H215.807C215.66 183.707 215.514 183.679 215.378 183.622C215.242 183.566 215.118 183.483 215.014 183.379C214.91 183.275 214.827 183.151 214.77 183.014C214.714 182.878 214.685 182.732 214.685 182.584C214.685 182.437 214.714 182.29 214.77 182.154C214.827 182.018 214.91 181.894 215.014 181.79C215.118 181.685 215.242 181.603 215.378 181.546C215.514 181.49 215.66 181.461 215.807 181.462H244.545C245.989 181.441 246.004 183.727 244.545 183.707Z" fill="#E4E4E4"/>
<path d="M168.572 200.701L172.429 200.701L174.264 185.782H168.571L168.572 200.701Z" fill="#A0616A"/>
<path d="M167.587 199.438L168.673 199.438L172.912 197.709L175.184 199.438H175.184C176.468 199.438 177.699 199.949 178.607 200.86C179.515 201.77 180.025 203.005 180.025 204.292V204.45L167.588 204.45L167.587 199.438Z" fill="#2F2E41"/>
<path d="M183.519 198.264L187.281 199.116L192.349 184.969L186.795 183.711L183.519 198.264Z" fill="#A0616A"/>
<path d="M182.837 196.815L183.896 197.054L188.41 196.305L190.246 198.492L190.247 198.492C191.499 198.776 192.588 199.547 193.273 200.635C193.959 201.724 194.185 203.041 193.902 204.297L193.868 204.45L181.736 201.704L182.837 196.815Z" fill="#2F2E41"/>
<path d="M163.686 109.496C161.878 114.965 162.069 120.902 164.121 127.274L164.998 163.148C164.998 163.148 163.691 186.674 167.908 194.952H174.024L177.052 161L177.433 138.21L190.545 157.437L182.193 194.397L189.721 195.072L203.273 154.961L186.552 116.047L163.686 109.496Z" fill="#2F2E41"/>
<path d="M187.643 117.196L165.404 113.629C164.82 113.442 164.284 113.13 163.833 112.715C163.381 112.301 163.024 111.793 162.786 111.227C162.549 110.661 162.436 110.05 162.456 109.436C162.476 108.822 162.628 108.22 162.902 107.671L163.911 105.648L163.519 84.3957C163.472 81.6313 164.151 78.9032 165.489 76.4858C166.828 74.0684 168.777 72.0469 171.142 70.6249L173.31 69.3246L174.406 66.5337L184.513 66.7809L184.542 70.4412L188.162 76.2284L188.161 76.2524L187.934 107.751L186.937 111.002L188.445 114.783L187.643 117.196Z" fill="#3F3D56"/>
<path d="M180.385 63.0636C185.456 63.0636 189.567 58.9411 189.567 53.8558C189.567 48.7704 185.456 44.6479 180.385 44.6479C175.313 44.6479 171.202 48.7704 171.202 53.8558C171.202 58.9411 175.313 63.0636 180.385 63.0636Z" fill="#A0616A"/>
<path d="M170.823 55.8629C170.549 54.7059 170.675 53.0778 170.829 51.9129C171.028 50.3767 171.545 48.8995 172.349 47.5769C173.153 46.2543 174.226 45.1159 175.496 44.2354C175.984 43.8643 176.563 43.6335 177.171 43.5681C177.475 43.5424 177.779 43.6138 178.041 43.7722C178.302 43.9305 178.506 44.1677 178.625 44.4497C178.778 44.0664 179.008 43.7186 179.3 43.4279C179.592 43.1371 179.941 42.9096 180.325 42.7592C181.095 42.4633 181.924 42.3513 182.745 42.4323C184.336 42.5639 185.862 43.125 187.161 44.0561C188.46 44.9872 189.484 46.2536 190.123 47.7209C190.368 48.3052 191.053 46.1471 191.364 46.6991C191.649 47.273 192.148 47.7119 192.752 47.922C193.361 48.0924 193.608 50.608 193.848 50.0214C194.034 50.455 194.107 50.9286 194.061 51.3983C194.016 51.8679 193.852 52.3184 193.586 52.7076C193.32 53.0968 192.96 53.4121 192.539 53.6242C192.119 53.8363 191.652 53.9383 191.182 53.9207C190.567 53.8409 189.957 53.724 189.357 53.5704C188.254 53.4311 187.138 53.7014 186.221 54.3304C185.303 54.9595 184.647 55.9037 184.376 56.9847C184.208 56.3561 183.94 55.7587 183.583 55.2157C183.401 54.9456 183.158 54.7229 182.873 54.566C182.589 54.4092 182.271 54.3228 181.946 54.314C181.636 54.3497 181.336 54.4486 181.065 54.6047C180.794 54.7609 180.558 54.9708 180.371 55.2218C179.967 55.6978 179.663 56.2531 179.256 56.7265C178.061 58.1156 176.445 61.355 174.742 61.1187C173.398 60.9323 171.197 57.4426 170.823 55.8629Z" fill="#2F2E41"/>
<path d="M214.617 110.475C214.226 110.646 213.803 110.728 213.377 110.716C212.951 110.705 212.533 110.6 212.152 110.409C211.77 110.217 211.436 109.945 211.171 109.61C210.906 109.275 210.718 108.886 210.62 108.47L200.314 107.426L203.714 103.242L212.979 104.875C213.687 104.755 214.413 104.9 215.021 105.282C215.629 105.663 216.077 106.255 216.279 106.946C216.481 107.636 216.423 108.377 216.117 109.027C215.81 109.678 215.277 110.193 214.617 110.475V110.475Z" fill="#A0616A"/>
<path d="M208.279 108.815L184.229 106.593L184.196 106.555L166.645 86.3889C165.489 84.6144 165.055 82.4642 165.429 80.3787C165.803 78.2931 166.958 76.4299 168.658 75.1706C169.598 74.4756 170.675 73.9881 171.817 73.7404C172.959 73.4926 174.14 73.4902 175.283 73.7332C176.425 73.9762 177.504 74.4591 178.447 75.1503C179.391 75.8414 180.177 76.725 180.755 77.7429L191.566 96.7774L208.543 103.617L208.279 108.815Z" fill="#3F3D56"/>
<path d="M580.476 205H157.523C157.384 205 157.251 204.944 157.153 204.845C157.055 204.747 157 204.613 157 204.474C157 204.335 157.055 204.201 157.153 204.103C157.251 204.004 157.384 203.949 157.523 203.948H580.476C580.615 203.948 580.748 204.004 580.846 204.102C580.945 204.201 581 204.335 581 204.474C581 204.614 580.945 204.747 580.846 204.846C580.748 204.945 580.615 205 580.476 205V205Z" fill="#CCCCCC"/>
<path d="M506.922 111.006C507.314 111.044 507.711 110.995 508.082 110.863C508.454 110.731 508.792 110.518 509.073 110.241C509.354 109.963 509.571 109.627 509.709 109.257C509.846 108.886 509.901 108.489 509.869 108.095L518.645 104.221L514.458 101.512L506.767 105.606C506.11 105.704 505.511 106.039 505.085 106.55C504.658 107.06 504.433 107.71 504.452 108.375C504.471 109.041 504.733 109.677 505.188 110.161C505.644 110.646 506.26 110.947 506.922 111.006V111.006Z" fill="#FFB6B6"/>
<path d="M512.081 107.215L510.523 101.774L526.297 93.8382L535.602 75.8591C536.062 74.9704 536.712 74.1942 537.504 73.5855C538.297 72.9768 539.214 72.5505 540.189 72.337C541.165 72.1235 542.176 72.128 543.149 72.3502C544.123 72.5723 545.036 73.0066 545.823 73.6223V73.6223C547.244 74.736 548.166 76.3694 548.388 78.1642C548.609 79.959 548.111 81.7686 547.004 83.1958L533.012 101.187L512.081 107.215Z" fill="#E4E4E4"/>
</svg>
