<svg width="424" height="179" viewBox="0 0 424 179" fill="none" xmlns="http://www.w3.org/2000/svg">
<path d="M361.767 91.3398C362.15 91.2453 362.508 91.0676 362.815 90.8195C363.122 90.5713 363.372 90.2586 363.545 89.9035C363.719 89.5483 363.813 89.1593 363.82 88.7639C363.827 88.3684 363.748 87.9761 363.588 87.6146L370.591 81.0473L365.746 79.8799L359.839 86.2953C359.251 86.6053 358.798 87.1206 358.563 87.7438C358.329 88.367 358.331 89.0546 358.569 89.6764C358.807 90.2982 359.263 90.811 359.853 91.1176C360.442 91.4241 361.124 91.5032 361.767 91.3398V91.3398Z" fill="#FFB6B6"/>
<path d="M365.385 86.05L362.119 81.4327L374.386 68.7103L377.234 48.6566C377.375 47.6653 377.732 46.7173 378.279 45.8799C378.826 45.0424 379.551 44.336 380.401 43.8109C381.251 43.2857 382.206 42.9547 383.198 42.8413C384.19 42.7278 385.195 42.8348 386.141 43.1546C387.85 43.7341 389.259 44.9695 390.06 46.5897C390.862 48.2099 390.989 50.0827 390.415 51.797L383.148 73.4173L365.385 86.05Z" fill="#E4E4E4"/>
<path d="M388.418 171.497H384.793L383.068 157.475L388.419 157.475L388.418 171.497Z" fill="#FFB6B6"/>
<path d="M390.368 178.399H387.796L387.337 175.964L386.16 178.399H379.338C379.01 178.399 378.692 178.295 378.429 178.1C378.165 177.906 377.971 177.632 377.873 177.319C377.776 177.006 377.781 176.67 377.888 176.36C377.994 176.05 378.197 175.782 378.466 175.596L383.915 171.822V169.36L389.646 169.703L390.368 178.399Z" fill="#2F2E41"/>
<path d="M410.785 167.798L407.6 169.535L399.401 158.045L404.101 155.48L410.785 167.798Z" fill="#FFB6B6"/>
<path d="M415.788 172.926L413.528 174.159L411.964 172.24L412.092 174.942L406.099 178.213C405.812 178.369 405.482 178.43 405.158 178.386C404.834 178.341 404.533 178.194 404.298 177.966C404.063 177.737 403.907 177.44 403.853 177.116C403.799 176.793 403.849 176.46 403.997 176.168L406.984 170.242L405.811 168.079L411.008 165.634L415.788 172.926Z" fill="#2F2E41"/>
<path d="M389.945 166.504H382.453V139.751L377.814 122.309C374.485 109.836 373.601 96.8343 375.209 84.0234L375.216 83.971L375.256 83.9371C375.375 83.8367 387.247 73.9938 394.756 81.5235C399.817 86.5989 395.061 104.849 394.795 105.851V137.312L389.945 166.504Z" fill="#2F2E41"/>
<path d="M389.927 40.3601L389.887 40.3203L380.334 40.4661L375.234 52.4701C370.512 59.8235 375.027 64.0059 375.344 64.6684L374.441 73.6912L373.86 79.5121L372.926 88.8839L394.82 81.7116L392.384 71.9291L395.199 57.8184C395.824 54.6981 395.669 51.4713 394.75 48.4252C393.83 45.3792 392.173 42.6086 389.927 40.3601V40.3601Z" fill="#E4E4E4"/>
<path d="M385.476 139.889L400.867 161.597L406.771 157.388L393.917 130.9L385.476 139.889Z" fill="#2F2E41"/>
<path d="M384.218 38.0272C389.089 38.0272 393.037 34.0677 393.037 29.1835C393.037 24.2993 389.089 20.3398 384.218 20.3398C379.347 20.3398 375.398 24.2993 375.398 29.1835C375.398 34.0677 379.347 38.0272 384.218 38.0272Z" fill="#FFB6B6"/>
<path opacity="0.1" d="M392.723 63.3965L383.104 74.526L373.859 79.5122L374.441 73.6913L379.885 70.6263L392.723 63.3965Z" fill="black"/>
<path d="M378.041 45.7568L377.213 42.1207C376.942 40.9039 376.915 39.6448 377.136 38.4176C377.357 37.1904 377.821 36.02 378.5 34.9752C379.123 33.9902 379.471 32.8549 379.506 31.6886C379.541 30.5224 379.262 29.3681 378.699 28.3473C378.283 27.522 377.651 26.8257 376.871 26.3329C376.091 25.8401 375.191 25.5693 374.27 25.5497H374.049V25.3288C374.049 22.1577 376.514 19.9195 378.805 19.7912C378.888 19.1313 379.355 18.5398 380.167 18.0701C382.107 16.9485 385.858 16.7053 388.692 18.2002C388.745 17.7168 388.926 17.2567 389.219 16.8686C389.511 16.4804 389.902 16.1788 390.351 15.9956C390.817 15.8332 391.318 15.8043 391.799 15.9121C391.841 15.1171 392.168 14.3641 392.721 13.7927C393.503 13.0323 394.759 12.7434 396.165 12.9983C398.097 13.3498 400.001 14.5837 401.527 16.4732C402.879 18.1484 403.818 20.1226 404.726 22.0318C405.619 23.9094 406.542 25.8509 407.881 27.4948C409.347 29.2957 411.164 30.4625 412.997 30.7804C415.134 31.1513 417.328 30.2689 418.332 28.6351L418.531 28.3108L418.713 28.6455C419.84 30.7235 419.379 33.5789 417.615 35.4348C416.034 37.0993 413.552 37.9473 410.978 37.701C408.799 37.4933 406.601 36.5647 404.446 34.9416C402.305 33.3294 400.981 31.5473 400.51 29.6446C400.379 29.0559 400.284 28.4595 400.228 27.8588C400.082 26.6007 399.944 25.4123 399.172 24.5376C398.479 23.7512 397.405 23.4104 396.453 23.1529L396.266 23.1027C396.232 23.457 396.122 23.7997 395.942 24.1067C395.762 24.4137 395.518 24.6777 395.226 24.8803C395.051 24.986 394.858 25.0603 394.658 25.0998C395.761 29.5541 395.308 32.9643 393.308 35.2379C389.932 39.0762 383.445 38.2867 383.171 38.2516L382.988 38.2278L382.979 38.0435C382.954 37.5486 382.894 37.0563 382.798 36.5702C381.869 38.8149 378.744 44.7506 378.326 45.3492L378.041 45.7568Z" fill="#2F2E41"/>
<path d="M66.5852 60.0367C66.3274 60.3768 65.9982 60.6561 65.6211 60.8549C65.2439 61.0537 64.8278 61.1672 64.4022 61.1873C63.9766 61.2074 63.5517 61.1337 63.1575 60.9714C62.7634 60.809 62.4095 60.562 62.1209 60.2477L52.6226 64.39L53.5477 59.0732L62.4257 55.9547C62.9844 55.5035 63.6888 55.2734 64.4053 55.3081C65.1219 55.3428 65.8009 55.6399 66.3136 56.1431C66.8263 56.6462 67.1371 57.3205 67.1872 58.0381C67.2373 58.7557 67.0231 59.4668 66.5852 60.0367V60.0367Z" fill="#A0616A"/>
<path d="M60.2465 61.6967L38.1851 71.5506L38.1377 71.5336L12.9933 62.5488C11.1204 61.5673 9.69246 59.905 9.00195 57.9022C8.31144 55.8995 8.41056 53.7078 9.27901 51.7759V51.7759C9.76039 50.7085 10.4617 49.7555 11.3369 48.9795C12.2121 48.2035 13.2413 47.6222 14.3566 47.2738C15.472 46.9254 16.6483 46.8178 17.8082 46.9582C18.968 47.0985 20.085 47.4836 21.0858 48.088L39.7979 59.3909L57.9428 57.0328L60.2465 61.6967Z" fill="#3F3D56"/>
<path d="M82.2754 128.086H296.85V3.52027C296.849 2.58695 296.478 1.69216 295.82 1.03221C295.162 0.372265 294.27 0.001052 293.339 0H85.7861C84.8554 0.001052 83.963 0.372265 83.3049 1.03221C82.6467 1.69216 82.2765 2.58695 82.2754 3.52027V128.086Z" fill="#3F3D56"/>
<path d="M290.22 4.86914H88.9048V119.473H290.22V4.86914Z" fill="white"/>
<path d="M82.0889 124.715V140.087C82.0889 140.724 82.214 141.355 82.4572 141.944C82.7004 142.533 83.0569 143.068 83.5062 143.518C83.9556 143.969 84.4891 144.326 85.0762 144.57C85.6633 144.814 86.2926 144.939 86.9281 144.939H166.126V175.276H165.074C164.991 175.276 164.909 175.292 164.833 175.324C164.757 175.355 164.688 175.402 164.629 175.46C164.571 175.519 164.525 175.588 164.493 175.665C164.461 175.741 164.445 175.823 164.445 175.906V178.016C164.445 178.099 164.461 178.181 164.493 178.257C164.525 178.334 164.571 178.403 164.629 178.462C164.688 178.52 164.757 178.567 164.833 178.598C164.909 178.63 164.991 178.646 165.074 178.646H214.239C214.321 178.646 214.403 178.63 214.479 178.598C214.555 178.567 214.625 178.52 214.683 178.462C214.742 178.403 214.788 178.334 214.819 178.257C214.851 178.181 214.867 178.099 214.867 178.016V175.906C214.867 175.823 214.851 175.741 214.819 175.665C214.788 175.588 214.742 175.519 214.683 175.46C214.625 175.402 214.555 175.355 214.479 175.324C214.403 175.292 214.321 175.276 214.239 175.276H213.187V144.939H292.384C293.02 144.939 293.649 144.814 294.236 144.57C294.823 144.326 295.357 143.969 295.806 143.518C296.255 143.068 296.612 142.533 296.855 141.944C297.098 141.355 297.223 140.724 297.223 140.087V124.715L82.0889 124.715Z" fill="#3F3D56"/>
<path d="M151.504 61.5447H102.445C102.103 61.5443 101.776 61.408 101.534 61.1656C101.292 60.9232 101.156 60.5945 101.156 60.2517V40.2911C101.156 39.9483 101.292 39.6196 101.534 39.3772C101.776 39.1348 102.103 38.9984 102.445 38.998H151.504C151.846 38.9984 152.174 39.1348 152.416 39.3772C152.657 39.6196 152.793 39.9483 152.794 40.2911V60.2517C152.793 60.5945 152.657 60.9232 152.416 61.1656C152.174 61.408 151.846 61.5443 151.504 61.5447V61.5447Z" fill="#35BB78"/>
<path d="M146.833 71.1196H107.116C106.706 71.1196 106.312 70.9561 106.022 70.6651C105.732 70.3741 105.569 69.9795 105.569 69.5679C105.569 69.1564 105.732 68.7618 106.022 68.4708C106.312 68.1798 106.706 68.0163 107.116 68.0163H146.833C148.828 67.9884 148.848 71.1478 146.833 71.1196Z" fill="#E4E4E4"/>
<path d="M146.833 78.2314H107.116C106.706 78.2314 106.312 78.0679 106.022 77.7769C105.732 77.4859 105.569 77.0913 105.569 76.6798C105.569 76.2682 105.732 75.8736 106.022 75.5826C106.312 75.2916 106.706 75.1281 107.116 75.1281H146.833C148.828 75.1002 148.848 78.2596 146.833 78.2314Z" fill="#E4E4E4"/>
<path d="M146.833 85.3432H107.116C106.706 85.3432 106.312 85.1797 106.022 84.8887C105.732 84.5977 105.569 84.2031 105.569 83.7916C105.569 83.38 105.732 82.9854 106.022 82.6944C106.312 82.4034 106.706 82.2399 107.116 82.2399H146.833C148.828 82.212 148.848 85.3714 146.833 85.3432Z" fill="#E4E4E4"/>
<path d="M214.092 61.5447H165.033C164.691 61.5443 164.364 61.408 164.122 61.1656C163.88 60.9232 163.744 60.5945 163.744 60.2517V40.2911C163.744 39.9483 163.88 39.6196 164.122 39.3772C164.364 39.1348 164.691 38.9984 165.033 38.998H214.092C214.434 38.9984 214.762 39.1348 215.004 39.3772C215.245 39.6196 215.381 39.9483 215.382 40.2911V60.2517C215.381 60.5945 215.245 60.9232 215.004 61.1656C214.762 61.408 214.434 61.5443 214.092 61.5447V61.5447Z" fill="#35BB78"/>
<path d="M209.421 71.1196H169.705C169.294 71.1196 168.901 70.9561 168.61 70.6651C168.32 70.3741 168.157 69.9795 168.157 69.5679C168.157 69.1564 168.32 68.7618 168.61 68.4708C168.901 68.1798 169.294 68.0163 169.705 68.0163H209.421C211.417 67.9884 211.437 71.1478 209.421 71.1196Z" fill="#E4E4E4"/>
<path d="M209.421 78.2314H169.705C169.294 78.2314 168.901 78.0679 168.61 77.7769C168.32 77.4859 168.157 77.0913 168.157 76.6798C168.157 76.2682 168.32 75.8736 168.61 75.5826C168.901 75.2916 169.294 75.1281 169.705 75.1281H209.421C211.417 75.1002 211.437 78.2596 209.421 78.2314Z" fill="#E4E4E4"/>
<path d="M209.421 85.3432H169.705C169.294 85.3432 168.901 85.1797 168.61 84.8887C168.32 84.5977 168.157 84.2031 168.157 83.7916C168.157 83.38 168.32 82.9854 168.61 82.6944C168.901 82.4034 169.294 82.2399 169.705 82.2399H209.421C211.417 82.212 211.437 85.3714 209.421 85.3432Z" fill="#E4E4E4"/>
<path d="M276.68 61.5447H227.621C227.279 61.5443 226.951 61.408 226.709 61.1656C226.467 60.9232 226.331 60.5945 226.331 60.2517V40.2911C226.331 39.9483 226.467 39.6196 226.709 39.3772C226.951 39.1348 227.279 38.9984 227.621 38.998H276.68C277.022 38.9984 277.349 39.1348 277.591 39.3772C277.833 39.6196 277.969 39.9483 277.969 40.2911V60.2517C277.969 60.5945 277.833 60.9232 277.591 61.1656C277.349 61.408 277.022 61.5443 276.68 61.5447V61.5447Z" fill="#35BB78"/>
<path d="M272.008 71.1196H232.292C231.882 71.1196 231.488 70.9561 231.198 70.6651C230.908 70.3741 230.745 69.9795 230.745 69.5679C230.745 69.1564 230.908 68.7618 231.198 68.4708C231.488 68.1798 231.882 68.0163 232.292 68.0163H272.008C274.004 67.9884 274.024 71.1478 272.008 71.1196Z" fill="#E4E4E4"/>
<path d="M272.009 78.2314H232.292C231.882 78.2307 231.489 78.0669 231.2 77.776C230.91 77.4851 230.748 77.0908 230.748 76.6798C230.748 76.2687 230.91 75.8744 231.2 75.5835C231.489 75.2926 231.882 75.1288 232.292 75.1281H272.009C274.004 75.1002 274.024 78.2596 272.009 78.2314Z" fill="#E4E4E4"/>
<path d="M272.008 85.3432H232.292C231.882 85.3432 231.488 85.1797 231.198 84.8887C230.908 84.5977 230.745 84.2031 230.745 83.7916C230.745 83.38 230.908 82.9854 231.198 82.6944C231.488 82.4034 231.882 82.2399 232.292 82.2399H272.008C274.004 82.212 274.024 85.3714 272.008 85.3432Z" fill="#E4E4E4"/>
<path d="M360.511 39.2673L360.645 64.2862L361.192 64.2553L361.712 73.518L360.696 73.5737L360.725 79.1384L361.537 79.1224L361.702 88.393L360.777 88.41L361.217 170.051C361.227 172.189 360.39 174.243 358.891 175.763C357.392 177.283 355.352 178.144 353.221 178.158L263.283 178.646C261.151 178.656 259.102 177.817 257.587 176.314C256.071 174.811 255.212 172.766 255.199 170.628L254.492 39.844C254.483 37.7063 255.319 35.652 256.819 34.1322C258.318 32.6124 260.357 31.751 262.489 31.7373L352.427 31.2486C354.558 31.2398 356.606 32.079 358.122 33.5822C359.637 35.0853 360.497 37.1298 360.511 39.2673V39.2673Z" fill="#3F3D56"/>
<path d="M353.351 173.014L263.097 173.505C262.439 173.508 261.808 173.249 261.341 172.786C260.874 172.323 260.609 171.692 260.605 171.033L259.893 39.3802C259.89 38.7213 260.148 38.0882 260.61 37.6197C261.072 37.1513 261.701 36.8857 262.358 36.8814L352.612 36.3906C353.269 36.3878 353.9 36.6465 354.368 37.1099C354.835 37.5733 355.099 38.2036 355.104 38.8625L355.816 170.516C355.819 171.175 355.561 171.808 355.098 172.276C354.636 172.745 354.008 173.01 353.351 173.014V173.014Z" fill="white"/>
<path d="M307.128 34.6486C307.506 34.6486 307.812 34.3415 307.812 33.9627C307.812 33.5839 307.506 33.2769 307.128 33.2769C306.751 33.2769 306.444 33.5839 306.444 33.9627C306.444 34.3415 306.751 34.6486 307.128 34.6486Z" fill="white"/>
<path d="M333.973 73.4468H281.736C281.372 73.4463 281.023 73.3012 280.766 73.0431C280.509 72.785 280.364 72.435 280.363 72.07V50.8167C280.364 50.4517 280.509 50.1018 280.766 49.8437C281.023 49.5856 281.372 49.4404 281.736 49.4399H333.973C334.337 49.4404 334.686 49.5855 334.943 49.8436C335.2 50.1018 335.345 50.4517 335.346 50.8167V72.07C335.345 72.435 335.2 72.785 334.943 73.0431C334.686 73.3012 334.337 73.4464 333.973 73.4468V73.4468Z" fill="#35BB78"/>
<path d="M328.999 83.6418H286.71C286.273 83.6418 285.854 83.4678 285.545 83.1579C285.236 82.8481 285.062 82.4279 285.062 81.9897C285.062 81.5516 285.236 81.1313 285.545 80.8215C285.854 80.5117 286.273 80.3376 286.71 80.3376H328.999C331.123 80.3079 331.145 83.6719 328.999 83.6418Z" fill="#E4E4E4"/>
<path d="M328.999 91.2141H286.71C286.274 91.2134 285.855 91.039 285.547 90.7293C285.239 90.4195 285.065 89.9997 285.065 89.562C285.065 89.1243 285.239 88.7045 285.547 88.3947C285.855 88.085 286.274 87.9106 286.71 87.9099H328.999C331.124 87.8801 331.145 91.2441 328.999 91.2141Z" fill="#E4E4E4"/>
<path d="M328.999 98.7864H286.71C286.273 98.7864 285.854 98.6123 285.545 98.3025C285.236 97.9927 285.062 97.5724 285.062 97.1342C285.062 96.6961 285.236 96.2759 285.545 95.966C285.854 95.6562 286.273 95.4821 286.71 95.4821H328.999C331.123 95.4524 331.145 98.8164 328.999 98.7864Z" fill="#E4E4E4"/>
<path d="M333.973 135.116H281.736C281.372 135.116 281.023 134.971 280.766 134.712C280.509 134.454 280.364 134.104 280.363 133.739V112.486C280.364 112.121 280.509 111.771 280.766 111.513C281.023 111.255 281.372 111.11 281.736 111.109H333.973C334.337 111.11 334.686 111.255 334.943 111.513C335.2 111.771 335.345 112.121 335.346 112.486V133.739C335.345 134.104 335.2 134.454 334.943 134.713C334.686 134.971 334.337 135.116 333.973 135.116V135.116Z" fill="#35BB78"/>
<path d="M328.999 145.311H286.71C286.273 145.311 285.854 145.137 285.545 144.827C285.236 144.518 285.062 144.097 285.062 143.659C285.062 143.221 285.236 142.801 285.545 142.491C285.854 142.181 286.273 142.007 286.71 142.007H328.999C331.123 141.977 331.145 145.341 328.999 145.311Z" fill="#E4E4E4"/>
<path d="M328.999 152.884H286.71C286.274 152.883 285.855 152.708 285.547 152.399C285.239 152.089 285.065 151.669 285.065 151.231C285.065 150.794 285.239 150.374 285.547 150.064C285.855 149.754 286.274 149.58 286.71 149.579H328.999C331.124 149.55 331.145 152.914 328.999 152.884Z" fill="#E4E4E4"/>
<path d="M328.999 160.456H286.71C286.273 160.456 285.854 160.282 285.545 159.972C285.236 159.662 285.062 159.242 285.062 158.804C285.062 158.366 285.236 157.945 285.545 157.635C285.854 157.326 286.273 157.152 286.71 157.152H328.999C331.123 157.122 331.145 160.486 328.999 160.456Z" fill="#E4E4E4"/>
<path d="M101.88 172.222L101.706 100.121L102.362 100.12L102.33 86.8587L101.675 86.8605L101.621 64.7232C101.619 63.8964 101.455 63.0781 101.137 62.315C100.82 61.5519 100.356 60.8589 99.7714 60.2757C99.187 59.6925 98.4937 59.2304 97.7312 58.9158C96.9686 58.6013 96.1518 58.4404 95.3272 58.4424L48.6027 58.5555C47.7781 58.5575 46.9621 58.7223 46.201 59.0405C45.44 59.3587 44.7489 59.8241 44.1673 60.4102C43.5856 60.9962 43.1248 61.6914 42.8111 62.456C42.4973 63.2206 42.3369 64.0397 42.3389 64.8665L42.376 80.3019L41.332 80.328L41.5626 89.5997L42.3984 89.5788L42.4033 91.6246L41.5139 91.6469L41.7445 100.919L42.4257 100.902L42.5979 172.366C42.5984 173.193 42.7617 174.012 43.0785 174.776C43.3953 175.54 43.8594 176.233 44.4442 176.817C45.0289 177.4 45.7228 177.862 46.4861 178.176C47.2493 178.49 48.0669 178.65 48.8919 178.647L95.6162 178.534C97.2809 178.528 98.8752 177.86 100.05 176.677C101.224 175.493 101.882 173.892 101.88 172.222Z" fill="#3F3D56"/>
<path d="M47.4632 175.761C46.8805 175.551 46.3763 175.167 46.0193 174.659C45.6623 174.152 45.4697 173.547 45.4677 172.926L45.2061 64.2923C45.2042 63.4922 45.5194 62.7241 46.0822 62.157C46.6451 61.5899 47.4095 61.2702 48.2074 61.2682L58.1489 61.2441L58.0258 61.5486C57.8123 62.0771 57.7317 62.6502 57.791 63.2173C57.8504 63.7845 58.048 64.3283 58.3664 64.8008C58.6847 65.2734 59.1141 65.6601 59.6166 65.9271C60.1192 66.194 60.6795 66.333 61.2482 66.3316L83.3114 66.2782C83.8606 66.2302 84.3908 66.0532 84.8591 65.7616C85.3274 65.47 85.7207 65.072 86.0072 64.5997C86.2895 64.1355 86.4583 63.6109 86.5 63.0688C86.5416 62.5267 86.4548 61.9824 86.2467 61.4804L86.1222 61.1764L96.3912 61.1514C97.1889 61.1505 97.9543 61.4669 98.5197 62.0311C99.085 62.5954 99.4042 63.3614 99.4071 64.1612L99.657 167.807C99.6596 169.929 98.8225 171.966 97.3294 173.47C95.8364 174.974 93.8093 175.823 91.6927 175.831L48.4836 175.936C48.136 175.937 47.7908 175.878 47.4632 175.761V175.761Z" fill="white"/>
<path d="M64.4843 63.819C64.8621 63.819 65.1683 63.5119 65.1683 63.1331C65.1683 62.7544 64.8621 62.4473 64.4843 62.4473C64.1065 62.4473 63.8003 62.7544 63.8003 63.1331C63.8003 63.5119 64.1065 63.819 64.4843 63.819Z" fill="white"/>
<path d="M90.9252 97.2056H55.4267C55.1793 97.2053 54.9422 97.1066 54.7673 96.9312C54.5923 96.7558 54.4939 96.518 54.4937 96.27V81.8267C54.4939 81.5787 54.5923 81.3409 54.7673 81.1655C54.9422 80.9901 55.1793 80.8914 55.4267 80.8911H90.9252C91.1726 80.8914 91.4098 80.9901 91.5847 81.1655C91.7596 81.3409 91.858 81.5787 91.8583 81.8267V96.27C91.858 96.518 91.7596 96.7558 91.5847 96.9312C91.4098 97.1066 91.1726 97.2053 90.9252 97.2056V97.2056Z" fill="#35BB78"/>
<path d="M87.5452 104.134H58.807C58.6597 104.134 58.5139 104.105 58.3778 104.049C58.2417 103.993 58.118 103.91 58.0138 103.806C57.9096 103.701 57.8269 103.578 57.7705 103.441C57.7141 103.305 57.6851 103.159 57.6851 103.011C57.6851 102.863 57.7141 102.717 57.7705 102.581C57.8269 102.445 57.9096 102.321 58.0138 102.216C58.118 102.112 58.2417 102.029 58.3778 101.973C58.5139 101.917 58.6597 101.888 58.807 101.888H87.5452C88.9892 101.868 89.0036 104.154 87.5452 104.134Z" fill="#E4E4E4"/>
<path d="M87.5454 109.28H58.8072C58.5102 109.28 58.2254 109.162 58.0154 108.951C57.8055 108.74 57.6875 108.455 57.6875 108.157C57.6875 107.859 57.8055 107.574 58.0154 107.363C58.2254 107.153 58.5102 107.034 58.8072 107.034H87.5454C88.9894 107.014 89.0038 109.3 87.5454 109.28Z" fill="#E4E4E4"/>
<path d="M87.5452 114.426H58.807C58.6597 114.426 58.5139 114.397 58.3778 114.341C58.2417 114.285 58.118 114.202 58.0138 114.098C57.9096 113.993 57.8269 113.87 57.7705 113.733C57.7141 113.597 57.6851 113.451 57.6851 113.303C57.6851 113.155 57.7141 113.009 57.7705 112.873C57.8269 112.737 57.9096 112.613 58.0138 112.508C58.118 112.404 58.2417 112.321 58.3778 112.265C58.5139 112.209 58.6597 112.18 58.807 112.18H87.5452C88.9892 112.16 89.0036 114.446 87.5452 114.426Z" fill="#E4E4E4"/>
<path d="M90.9252 140.487H55.4267C55.1793 140.487 54.9422 140.388 54.7673 140.212C54.5923 140.037 54.4939 139.799 54.4937 139.551V125.108C54.4939 124.86 54.5923 124.622 54.7673 124.447C54.9422 124.271 55.1793 124.173 55.4267 124.172H90.9252C91.1726 124.173 91.4098 124.271 91.5847 124.447C91.7596 124.622 91.858 124.86 91.8583 125.108V139.551C91.858 139.799 91.7596 140.037 91.5847 140.212C91.4098 140.388 91.1726 140.487 90.9252 140.487Z" fill="#35BB78"/>
<path d="M87.5452 147.416H58.807C58.6597 147.416 58.5139 147.387 58.3778 147.331C58.2417 147.274 58.118 147.192 58.0138 147.087C57.9096 146.983 57.8269 146.859 57.7705 146.723C57.7141 146.587 57.6851 146.44 57.6851 146.293C57.6851 146.145 57.7141 145.999 57.7705 145.863C57.8269 145.726 57.9096 145.602 58.0138 145.498C58.118 145.394 58.2417 145.311 58.3778 145.255C58.5139 145.199 58.6597 145.17 58.807 145.17H87.5452C88.9892 145.15 89.0036 147.436 87.5452 147.416Z" fill="#E4E4E4"/>
<path d="M87.5454 152.562H58.8072C58.5102 152.562 58.2254 152.443 58.0154 152.233C57.8055 152.022 57.6875 151.737 57.6875 151.439C57.6875 151.141 57.8055 150.855 58.0154 150.645C58.2254 150.434 58.5102 150.316 58.8072 150.316H87.5454C88.9894 150.296 89.0038 152.582 87.5454 152.562Z" fill="#E4E4E4"/>
<path d="M87.5452 157.707H58.807C58.6597 157.707 58.5139 157.679 58.3778 157.622C58.2417 157.566 58.118 157.483 58.0138 157.379C57.9096 157.275 57.8269 157.151 57.7705 157.014C57.7141 156.878 57.6851 156.732 57.6851 156.584C57.6851 156.437 57.7141 156.29 57.7705 156.154C57.8269 156.018 57.9096 155.894 58.0138 155.79C58.118 155.685 58.2417 155.603 58.3778 155.546C58.5139 155.49 58.6597 155.461 58.807 155.462H87.5452C88.9892 155.441 89.0036 157.727 87.5452 157.707Z" fill="#E4E4E4"/>
<path d="M11.5717 174.701L15.4291 174.701L17.2639 159.782H11.5708L11.5717 174.701Z" fill="#A0616A"/>
<path d="M10.5874 173.438L11.6731 173.438L15.9118 171.709L18.1837 173.438H18.184C19.4678 173.438 20.6991 173.949 21.6069 174.86C22.5148 175.77 23.0248 177.005 23.0249 178.292V178.45L10.5876 178.45L10.5874 173.438Z" fill="#2F2E41"/>
<path d="M26.519 172.264L30.2813 173.116L35.3486 158.969L29.7955 157.711L26.519 172.264Z" fill="#A0616A"/>
<path d="M25.8366 170.815L26.8957 171.054L31.41 170.305L33.2464 172.492L33.2467 172.492C34.499 172.776 35.5877 173.547 36.2732 174.635C36.9588 175.724 37.1851 177.041 36.9024 178.297L36.8678 178.45L24.7358 175.704L25.8366 170.815Z" fill="#2F2E41"/>
<path d="M6.6861 83.4961C4.87765 88.9653 5.06884 94.902 7.12079 101.274L7.99796 137.148C7.99796 137.148 6.69104 160.674 10.9082 168.952H17.0243L20.0524 135L20.4327 112.21L33.5449 131.437L25.1933 168.397L32.7208 169.072L46.2731 128.961L29.5522 90.0472L6.6861 83.4961Z" fill="#2F2E41"/>
<path d="M30.6431 91.1959L8.40371 87.6289C7.82043 87.4416 7.28449 87.1299 6.83268 86.7153C6.38087 86.3007 6.02388 85.793 5.78622 85.2269C5.54857 84.6609 5.43587 84.05 5.45588 83.4362C5.47588 82.8224 5.62811 82.2202 5.90211 81.671L6.91065 79.6481L6.51889 58.3957C6.47167 55.6313 7.15132 52.9032 8.48947 50.4858C9.82762 48.0684 11.7771 46.0469 14.1417 44.6249L16.3104 43.3246L17.4065 40.5337L27.5128 40.7809L27.5423 44.4412L31.1616 50.2284L31.1615 50.2524L30.9344 81.7514L29.9369 85.0021L31.4451 88.7831L30.6431 91.1959Z" fill="#3F3D56"/>
<path d="M23.3848 37.0636C28.4563 37.0636 32.5675 32.9411 32.5675 27.8558C32.5675 22.7704 28.4563 18.6479 23.3848 18.6479C18.3134 18.6479 14.2021 22.7704 14.2021 27.8558C14.2021 32.9411 18.3134 37.0636 23.3848 37.0636Z" fill="#A0616A"/>
<path d="M13.8227 29.8629C13.5488 28.7059 13.6746 27.0778 13.8294 25.9129C14.0276 24.3767 14.5455 22.8995 15.3494 21.5769C16.1534 20.2543 17.2256 19.1159 18.4964 18.2354C18.9837 17.8643 19.5627 17.6335 20.171 17.5681C20.4751 17.5424 20.7795 17.6138 21.0406 17.7722C21.3017 17.9305 21.5061 18.1677 21.6246 18.4497C21.7777 18.0664 22.0076 17.7186 22.3 17.4279C22.5924 17.1371 22.9411 16.9096 23.3246 16.7592C24.095 16.4633 24.9235 16.3513 25.7446 16.4323C27.336 16.5639 28.8622 17.125 30.1612 18.0561C31.4602 18.9872 32.4836 20.2536 33.1228 21.7209C33.3681 22.3052 34.0531 20.1471 34.3639 20.6991C34.6495 21.273 35.1477 21.7119 35.7519 21.922C36.3608 22.0924 36.6081 24.608 36.8478 24.0214C37.0337 24.455 37.1072 24.9286 37.0614 25.3983C37.0156 25.8679 36.852 26.3184 36.5859 26.7076C36.3198 27.0968 35.9598 27.4121 35.5394 27.6242C35.119 27.8363 34.6519 27.9383 34.1816 27.9207C33.5669 27.8409 32.9575 27.724 32.3569 27.5704C31.254 27.4311 30.1384 27.7014 29.2207 28.3304C28.303 28.9595 27.6467 29.9037 27.3758 30.9847C27.2082 30.3561 26.9404 29.7587 26.5828 29.2157C26.4013 28.9456 26.1581 28.7229 25.8735 28.566C25.5888 28.4092 25.2709 28.3228 24.9462 28.314C24.6359 28.3497 24.3361 28.4486 24.0652 28.6047C23.7944 28.7609 23.5582 28.9708 23.3712 29.2218C22.967 29.6978 22.6634 30.2531 22.2561 30.7265C21.0612 32.1156 19.445 35.355 17.7421 35.1187C16.3982 34.9323 14.1967 31.4426 13.8227 29.8629Z" fill="#2F2E41"/>
<path d="M57.6169 84.4753C57.2261 84.6455 56.8028 84.7278 56.3768 84.7163C55.9509 84.7047 55.5326 84.5997 55.1515 84.4086C54.7704 84.2174 54.4358 83.9448 54.1711 83.6099C53.9065 83.2751 53.7183 82.8861 53.6198 82.4704L43.3145 81.4264L46.7143 77.2422L55.9791 78.8751C56.6865 78.7554 57.4132 78.9001 58.0213 79.2817C58.6294 79.6634 59.0768 80.2555 59.2787 80.9458C59.4805 81.6361 59.4229 82.3766 59.1166 83.0271C58.8103 83.6777 58.2767 84.1929 57.6169 84.4753V84.4753Z" fill="#A0616A"/>
<path d="M51.2785 82.8152L27.2293 80.5933L27.1963 80.5553L9.64451 60.3889C8.48942 58.6144 8.05451 56.4642 8.42884 54.3787C8.80317 52.2931 9.95841 50.4299 11.658 49.1706C12.5984 48.4756 13.675 47.9881 14.8168 47.7404C15.9586 47.4926 17.1398 47.4902 18.2826 47.7332C19.4255 47.9762 20.504 48.4591 21.4473 49.1503C22.3906 49.8414 23.1772 50.725 23.7553 51.7429L34.5659 70.7774L51.5434 77.6175L51.2785 82.8152Z" fill="#3F3D56"/>
<path d="M423.476 179H0.522906C0.384083 179 0.251082 178.944 0.153062 178.845C0.0550406 178.747 0 178.613 0 178.474C0 178.335 0.0550406 178.201 0.153062 178.103C0.251082 178.004 0.384083 177.949 0.522906 177.948H423.476C423.615 177.948 423.748 178.004 423.846 178.102C423.945 178.201 424 178.335 424 178.474C424 178.614 423.945 178.747 423.846 178.846C423.748 178.945 423.615 179 423.476 179V179Z" fill="#CCCCCC"/>
<path d="M349.922 85.0065C350.314 85.0443 350.711 84.9954 351.082 84.8631C351.454 84.7308 351.792 84.5184 352.073 84.2408C352.354 83.9633 352.571 83.6273 352.709 83.2566C352.846 82.8859 352.901 82.4895 352.869 82.0952L361.645 78.2213L357.458 75.5122L349.767 79.6063C349.11 79.7038 348.511 80.0395 348.085 80.5499C347.658 81.0602 347.433 81.7098 347.452 82.3754C347.471 83.0411 347.733 83.6766 348.188 84.1615C348.644 84.6464 349.26 84.947 349.922 85.0065V85.0065Z" fill="#FFB6B6"/>
<path d="M355.081 81.2147L353.523 75.7739L369.297 67.8382L378.602 49.8591C379.062 48.9704 379.712 48.1942 380.504 47.5855C381.297 46.9768 382.214 46.5505 383.189 46.337C384.165 46.1235 385.176 46.128 386.149 46.3502C387.123 46.5723 388.036 47.0066 388.823 47.6223V47.6223C390.244 48.736 391.166 50.3694 391.388 52.1642C391.609 53.959 391.111 55.7686 390.004 57.1958L376.012 75.1871L355.081 81.2147Z" fill="#E4E4E4"/>
</svg>
