<svg width="100" height="100" viewBox="0 0 100 100" fill="none" xmlns="http://www.w3.org/2000/svg">
<path d="M50 100C77.6142 100 100 77.6142 100 50C100 22.3858 77.6142 0 50 0C22.3858 0 0 22.3858 0 50C0 77.6142 22.3858 100 50 100Z" fill="#CEFFE6"/>
<path d="M58.3152 66.76C58.082 66.6181 57.8788 66.4279 57.7173 66.1974C57.6427 66.0911 57.5797 65.9787 57.5275 65.8625H31.0307V39.7458H66.9963V56.7991C67.7641 56.8684 68.4084 57.3727 68.6789 58.0633C68.9184 57.932 69.1853 57.8509 69.4658 57.8261C69.6556 57.8096 69.8441 57.8214 70.0269 57.8575V33.2395C70.0269 31.8469 68.8941 30.7139 67.5016 30.7139H30.5256C29.133 30.7139 28 31.8469 28 33.2395V66.3678C28 67.7604 29.133 68.8933 30.5256 68.8933H58.085C57.8699 68.4578 57.8189 67.9662 57.9455 67.4932C58.0184 67.2211 58.1447 66.9729 58.3152 66.76ZM64.2229 34.955C64.2229 34.4399 64.6404 34.0223 65.1554 34.0223H66.0879C66.6031 34.0223 67.0204 34.4398 67.0204 34.955V36.0119C67.0204 36.5269 66.6029 36.9444 66.0879 36.9444H65.1554C64.6403 36.9444 64.2229 36.5269 64.2229 36.0119V34.955ZM59.8867 34.955C59.8867 34.4399 60.3042 34.0223 60.8192 34.0223H61.7518C62.2669 34.0223 62.6843 34.4398 62.6843 34.955V36.0119C62.6843 36.5269 62.2668 36.9444 61.7518 36.9444H60.8192C60.3042 36.9444 59.8867 36.5269 59.8867 36.0119V34.955ZM55.5503 34.955C55.5503 34.4399 55.9679 34.0223 56.4828 34.0223H57.4153C57.9305 34.0223 58.3479 34.4398 58.3479 34.955V36.0119C58.3479 36.5269 57.9305 36.9444 57.4153 36.9444H56.4828C55.9679 36.9444 55.5503 36.5269 55.5503 36.0119V34.955Z" fill="#35BB78"/>
<path d="M72.994 64.9813L72.7137 63.3922C72.6759 63.1782 72.472 63.0352 72.2578 63.0729L70.8445 63.322C70.6749 62.9239 70.4582 62.5509 70.201 62.2096L71.1241 61.1093C71.1912 61.0296 71.2239 60.9262 71.2149 60.8221C71.2057 60.7181 71.1555 60.6221 71.0756 60.5549L69.8396 59.5176C69.7596 59.4505 69.656 59.4179 69.5521 59.427C69.448 59.4361 69.352 59.4862 69.2849 59.5661L68.3627 60.6656C67.9841 60.4727 67.5791 60.3239 67.1549 60.2258V58.7907C67.1549 58.5734 66.9786 58.397 66.7613 58.397H65.1475C64.9302 58.397 64.7539 58.5734 64.7539 58.7907V60.2258C64.3294 60.3238 63.9249 60.4727 63.546 60.6656L62.6236 59.5662C62.4839 59.3997 62.2357 59.378 62.0691 59.5177L60.833 60.5549C60.753 60.6221 60.703 60.7181 60.6938 60.8221C60.6848 60.9262 60.7173 61.0297 60.7844 61.1096L61.7076 62.2097C61.4508 62.5509 61.2337 62.9241 61.0641 63.3221L59.6509 63.0729C59.4372 63.0353 59.2328 63.1782 59.1949 63.3922L58.9148 64.9813C58.8967 65.0841 58.9201 65.1898 58.9798 65.2754C59.0399 65.361 59.1309 65.4192 59.2338 65.4373L60.6481 65.6866C60.6711 66.1247 60.7474 66.5487 60.8703 66.9523L59.6272 67.6698C59.5367 67.7218 59.4708 67.8079 59.4437 67.9086C59.4167 68.0095 59.431 68.1169 59.4831 68.2073L60.2899 69.6048C60.3418 69.6952 60.428 69.7611 60.5287 69.7881C60.5623 69.7971 60.5965 69.8015 60.6306 69.8015C60.6991 69.8015 60.7669 69.7837 60.8274 69.7488L62.0714 69.0305C62.364 69.344 62.6942 69.6217 63.0551 69.8566L62.5639 71.2061C62.5283 71.3042 62.533 71.4125 62.5771 71.5071C62.6213 71.6017 62.7011 71.6749 62.7991 71.7105L64.3152 72.2623C64.3588 72.2781 64.4044 72.2863 64.4499 72.2863C64.5067 72.2863 64.5639 72.2739 64.6165 72.2493C64.7111 72.2052 64.7841 72.1253 64.8198 72.0271L65.3109 70.6777C65.5214 70.7032 65.7358 70.7164 65.9532 70.7164C66.1706 70.7164 66.3849 70.703 66.5955 70.6777L67.0867 72.0271C67.1223 72.1253 67.1956 72.2052 67.29 72.2493C67.3425 72.2738 67.3994 72.2863 67.4565 72.2863C67.502 72.2863 67.5476 72.2783 67.5911 72.2623L69.1075 71.7105C69.2053 71.6749 69.2852 71.6015 69.3293 71.5071C69.3734 71.4125 69.3781 71.3042 69.3425 71.2061L68.8512 69.8568C69.2118 69.6219 69.5421 69.344 69.835 69.0307L71.079 69.749C71.1393 69.7837 71.2073 69.8017 71.2757 69.8017C71.3098 69.8017 71.3443 69.7971 71.3777 69.7883C71.4785 69.7613 71.5644 69.6952 71.6165 69.605L72.4233 68.2073C72.4754 68.1171 72.4897 68.0095 72.4627 67.9086C72.4355 67.8081 72.3696 67.722 72.2792 67.6698L71.0363 66.9526C71.1592 66.5488 71.2352 66.1249 71.2583 65.6868L72.6726 65.4374C72.7755 65.4193 72.8668 65.3611 72.9265 65.2755C72.9886 65.1898 73.0121 65.0841 72.994 64.9813ZM65.9545 67.5067C64.7591 67.5067 63.7898 66.5374 63.7898 65.3419C63.7898 64.1465 64.7592 63.1773 65.9545 63.1773C67.15 63.1773 68.1192 64.1465 68.1192 65.3419C68.1192 66.5374 67.15 67.5067 65.9545 67.5067Z" fill="#81ECB7"/>
<path d="M45.6488 54.2227C45.6488 53.7135 45.3504 53.2457 44.8884 53.0312L40.6604 51.0667L44.8885 49.102C45.3504 48.8873 45.6488 48.4196 45.6488 47.9106V47.8764C45.6488 47.4253 45.4218 47.0111 45.0418 46.769C44.8315 46.6348 44.5867 46.5637 44.3339 46.5637C44.1433 46.5637 43.9521 46.6056 43.7809 46.6851L37.0215 49.8285C36.5597 50.0432 36.2615 50.5109 36.2615 51.0198V51.1138C36.2615 51.622 36.5596 52.0893 37.0216 52.3052L43.7817 55.4488C43.9564 55.5297 44.1426 55.5708 44.3348 55.5708C44.5854 55.5708 44.8295 55.4996 45.0418 55.3646C45.422 55.1216 45.6489 54.7077 45.6489 54.2571L45.6488 54.2227Z" fill="#35BB78"/>
<path d="M52.3183 43.3608C52.0717 43.0232 51.6751 42.8218 51.2573 42.8218H51.2236C50.6499 42.8218 50.1469 43.1888 49.9721 43.7344L45.5185 57.5336C45.3918 57.932 45.4631 58.3709 45.7094 58.7083C45.956 59.0457 46.3526 59.2472 46.7704 59.2472H46.8041C47.3777 59.2472 47.8803 58.8801 48.0549 58.3346L52.508 44.5365C52.6359 44.1384 52.565 43.6989 52.3183 43.3608Z" fill="#35BB78"/>
<path d="M61.0056 49.8283L54.246 46.6849C54.0754 46.6056 53.8845 46.5637 53.6939 46.5637C53.4412 46.5637 53.1963 46.6346 52.9861 46.7686C52.6055 47.0111 52.3784 47.4252 52.3784 47.8763V47.9105C52.3784 48.4191 52.6766 48.8869 53.1389 49.1025L57.3668 51.0667L53.1388 53.0311C52.6769 53.2456 52.3784 53.7134 52.3784 54.2226V54.257C52.3784 54.7076 52.6055 55.1213 52.9859 55.3646C53.1974 55.4994 53.4418 55.5707 53.6926 55.5707C53.8847 55.5707 54.0706 55.5296 54.2465 55.4484L61.0064 52.3047C61.468 52.0895 61.766 51.622 61.766 51.1138V51.0198C61.7657 50.5108 61.4674 50.0431 61.0056 49.8283Z" fill="#35BB78"/>
</svg>
