<svg width="100" height="100" viewBox="0 0 100 100" fill="none" xmlns="http://www.w3.org/2000/svg">
<path d="M50 100C77.6142 100 100 77.6142 100 50C100 22.3858 77.6142 0 50 0C22.3858 0 0 22.3858 0 50C0 77.6142 22.3858 100 50 100Z" fill="#E8E5FC"/>
<path d="M63.6245 35.0188H63.3242V26.7238C63.3242 26.0933 63.2011 25.469 62.9618 24.8866C62.7225 24.3041 62.3718 23.7748 61.9297 23.329C61.4875 22.8832 60.9627 22.5296 60.385 22.2883C59.8073 22.047 59.1882 21.9229 58.563 21.9229H41.1341C40.5088 21.9229 39.8897 22.047 39.312 22.2883C38.7343 22.5296 38.2095 22.8832 37.7673 23.329C37.3252 23.7748 36.9745 24.3041 36.7352 24.8865C36.496 25.469 36.3728 26.0933 36.3728 26.7238V72.231C36.3728 72.8614 36.496 73.4857 36.7352 74.0682C36.9745 74.6507 37.3252 75.1799 37.7673 75.6257C38.2095 76.0715 38.7343 76.4252 39.312 76.6664C39.8897 76.9077 40.5088 77.0319 41.1341 77.0319H58.5629C59.1882 77.0319 59.8073 76.9077 60.385 76.6664C60.9627 76.4252 61.4875 76.0716 61.9297 75.6257C62.3718 75.1799 62.7225 74.6507 62.9618 74.0682C63.201 73.4857 63.3242 72.8614 63.3242 72.231V40.9234H63.6245V35.0188Z" fill="#2F7DED"/>
<path d="M62.3107 26.7569V72.1979C62.3107 72.6687 62.2187 73.1349 62.04 73.5699C61.8613 74.0049 61.5993 74.4001 61.269 74.733C60.9388 75.0659 60.5468 75.3299 60.1153 75.5099C59.6839 75.69 59.2215 75.7826 58.7545 75.7824H41.2417C40.7749 75.7824 40.3126 75.6898 39.8813 75.5096C39.4499 75.3295 39.058 75.0655 38.7279 74.7326C38.3978 74.3997 38.1359 74.0046 37.9573 73.5697C37.7787 73.1347 37.6867 72.6686 37.6868 72.1979V26.7569C37.6867 26.2862 37.7787 25.82 37.9573 25.3851C38.1359 24.9502 38.3978 24.555 38.7279 24.2222C39.058 23.8893 39.4499 23.6253 39.8813 23.4451C40.3126 23.265 40.7749 23.1723 41.2417 23.1724H43.367C43.2626 23.431 43.223 23.7116 43.2514 23.9893C43.2798 24.267 43.3755 24.5335 43.53 24.7652C43.6845 24.9969 43.8931 25.1868 44.1375 25.3182C44.3818 25.4495 44.6545 25.5183 44.9314 25.5185H54.9159C55.193 25.5188 55.4659 25.4503 55.7105 25.319C55.9551 25.1878 56.1639 24.9979 56.3186 24.766C56.4732 24.5342 56.5688 24.2675 56.597 23.9896C56.6252 23.7117 56.5852 23.431 56.4804 23.1724H58.7545C59.2215 23.1722 59.6839 23.2648 60.1153 23.4448C60.5468 23.6249 60.9388 23.8889 61.269 24.2218C61.5993 24.5547 61.8613 24.9499 62.04 25.3849C62.2187 25.8198 62.3107 26.2861 62.3107 26.7569V26.7569Z" fill="#E6E3FA"/>
<path d="M57.575 49.4475H42.1817C41.9121 49.4472 41.6536 49.339 41.463 49.1468C41.2723 48.9546 41.1651 48.6939 41.1648 48.4221V47.9117C41.1651 47.6398 41.2723 47.3791 41.463 47.1869C41.6536 46.9947 41.9121 46.8865 42.1817 46.8862H57.575C57.8446 46.8865 58.1031 46.9947 58.2937 47.1869C58.4844 47.3791 58.5916 47.6398 58.5919 47.9117V48.4221C58.5916 48.6939 58.4844 48.9546 58.2937 49.1468C58.1031 49.339 57.8446 49.4472 57.575 49.4475Z" fill="#F0F0F0"/>
<path d="M57.575 53.8471H42.1817C41.9121 53.8468 41.6536 53.7387 41.463 53.5465C41.2723 53.3542 41.1651 53.0936 41.1648 52.8217V52.3113C41.1651 52.0394 41.2723 51.7788 41.463 51.5866C41.6536 51.3943 41.9121 51.2862 42.1817 51.2859H57.575C57.8446 51.2862 58.1031 51.3943 58.2937 51.5866C58.4844 51.7788 58.5916 52.0394 58.5919 52.3113V52.8217C58.5916 53.0936 58.4844 53.3542 58.2937 53.5465C58.1031 53.7387 57.8446 53.8468 57.575 53.8471V53.8471Z" fill="#F0F0F0"/>
<path d="M57.6331 49.3862H42.2399C41.9568 49.3859 41.6854 49.2723 41.4852 49.0705C41.285 48.8686 41.1724 48.595 41.1721 48.3095V47.7991C41.1724 47.5136 41.285 47.24 41.4852 47.0381C41.6854 46.8363 41.9568 46.7227 42.2399 46.7224H57.6331C57.9162 46.7227 58.1876 46.8363 58.3878 47.0381C58.588 47.24 58.7006 47.5136 58.7009 47.7991V48.3095C58.7006 48.595 58.588 48.8686 58.3878 49.0705C58.1876 49.2723 57.9162 49.3859 57.6331 49.3862V49.3862ZM42.2399 46.9275C42.0107 46.9278 41.791 47.0197 41.629 47.1831C41.4669 47.3465 41.3758 47.568 41.3755 47.7991V48.3095C41.3758 48.5406 41.4669 48.7622 41.629 48.9256C41.791 49.089 42.0107 49.1809 42.2399 49.1811H57.6331C57.8623 49.1809 58.082 49.089 58.2441 48.9256C58.4061 48.7622 58.4973 48.5406 58.4975 48.3095V47.7991C58.4973 47.568 58.4061 47.3465 58.2441 47.1831C58.082 47.0197 57.8623 46.9278 57.6331 46.9275H42.2399Z" fill="#2F7DED"/>
<path d="M57.6331 53.7861H42.2399C41.9568 53.7858 41.6854 53.6722 41.4852 53.4704C41.285 53.2686 41.1724 52.9949 41.1721 52.7094V52.199C41.1724 51.9136 41.285 51.6399 41.4852 51.438C41.6854 51.2362 41.9568 51.1226 42.2399 51.1223H57.6331C57.9162 51.1226 58.1876 51.2362 58.3878 51.438C58.588 51.6399 58.7006 51.9136 58.7009 52.199V52.7094C58.7006 52.9949 58.588 53.2686 58.3878 53.4704C58.1876 53.6722 57.9162 53.7858 57.6331 53.7861V53.7861ZM42.2399 51.3274C42.0107 51.3277 41.791 51.4196 41.629 51.583C41.4669 51.7464 41.3758 51.9679 41.3755 52.199V52.7094C41.3758 52.9405 41.4669 53.1621 41.629 53.3255C41.791 53.4889 42.0107 53.5808 42.2399 53.581H57.6331C57.8623 53.5808 58.082 53.4889 58.2441 53.3255C58.4061 53.1621 58.4973 52.9405 58.4975 52.7094V52.199C58.4973 51.9679 58.4061 51.7464 58.2441 51.583C58.082 51.4196 57.8623 51.3277 57.6331 51.3274H42.2399Z" fill="#2F7DED"/>
<path d="M53.2116 59.1528H45.9035C45.6339 59.1525 45.3754 59.0444 45.1848 58.8521C44.9941 58.6599 44.8869 58.3993 44.8866 58.1274V57.617C44.8869 57.3451 44.9941 57.0845 45.1848 56.8922C45.3754 56.7 45.6339 56.5919 45.9035 56.5916H53.2116C53.4812 56.5919 53.7397 56.7 53.9303 56.8922C54.121 57.0845 54.2282 57.3451 54.2285 57.617V58.1274C54.2282 58.3993 54.121 58.6599 53.9303 58.8521C53.7397 59.0444 53.4812 59.1525 53.2116 59.1528V59.1528Z" fill="#2F7DED"/>
</svg>
