<svg width="100" height="100" viewBox="0 0 100 100" fill="none" xmlns="http://www.w3.org/2000/svg">
<path d="M50 100C77.6142 100 100 77.6142 100 50C100 22.3858 77.6142 0 50 0C22.3858 0 0 22.3858 0 50C0 77.6142 22.3858 100 50 100Z" fill="#FFF5DF"/>
<g clip-path="url(#clip0_2:442)">
<path d="M36.5108 45.5438C36.365 45.2295 36.0502 45.0283 35.7038 45.0283C35.7031 45.0283 35.7024 45.0283 35.7018 45.0283C35.3546 45.0291 35.0396 45.2318 34.8951 45.5475L30.4866 55.1768C30.2821 55.6235 30.4784 56.1514 30.925 56.3558C31.045 56.4107 31.1709 56.4367 31.2948 56.4367C31.6319 56.4367 31.9545 56.2439 32.104 55.9173L33.2097 53.5021H38.2387L39.3598 55.9211C39.5665 56.3668 40.0951 56.5607 40.5409 56.3541C40.9866 56.1474 41.1804 55.6187 40.9739 55.173L36.5108 45.5438ZM34.0242 51.7232L35.7089 48.0438L37.4142 51.7232H34.0242Z" fill="#FAC14D"/>
<path d="M46.7836 44.9182H42.4832C41.992 44.9182 41.5938 45.3164 41.5938 45.8077V55.5467C41.5938 56.038 41.992 56.4362 42.4832 56.4362C42.9745 56.4362 43.3727 56.038 43.3727 55.5467V51.8472H46.7836C48.6939 51.8472 50.2479 50.2931 50.2479 48.3829C50.2481 46.4725 48.6939 44.9182 46.7836 44.9182ZM46.7836 50.0683H43.3727V46.6972H46.7836C47.7131 46.6972 48.469 47.4534 48.469 48.3828C48.4691 49.3122 47.7131 50.0683 46.7836 50.0683Z" fill="#FAC14D"/>
<path d="M51.8219 44.9182C51.3306 44.9182 50.9324 45.3164 50.9324 45.8077V55.5467C50.9324 56.038 51.3306 56.4362 51.8219 56.4362C52.3131 56.4362 52.7113 56.038 52.7113 55.5467V45.8077C52.7113 45.3164 52.313 44.9182 51.8219 44.9182Z" fill="#FAC14D"/>
<path d="M74.4013 30.3613H25.5989C24.7172 30.3613 24 31.0788 24 31.9605V68.0397C24 68.9212 24.7172 69.6386 25.5989 69.6386H74.4014C75.2829 69.6386 76.0001 68.9212 76.0001 68.0397V31.9605C76 31.0788 75.2829 30.3613 74.4013 30.3613ZM62.4457 59.4787C63.152 57.8103 64.7792 56.7323 66.5913 56.7323C67.1949 56.7323 67.7847 56.8525 68.3446 57.0895C70.6294 58.0572 71.7012 60.7032 70.734 62.988C70.027 64.6563 68.3998 65.7342 66.5885 65.7342C66.5885 65.7342 66.5885 65.7342 66.5884 65.7342C65.9848 65.7342 65.395 65.614 64.8355 65.3769C63.7285 64.9083 62.8703 64.0368 62.419 62.9226C61.9675 61.8086 61.977 60.5855 62.4457 59.4787ZM67.9083 34.916C68.8448 34.916 69.6033 35.675 69.6033 36.611C69.6033 37.5473 68.8448 38.3061 67.9083 38.3061C66.9724 38.3061 66.2135 37.5473 66.2135 36.611C66.2135 35.675 66.9724 34.916 67.9083 34.916ZM62.8242 34.916C63.76 34.916 64.5191 35.675 64.5191 36.611C64.5191 37.5473 63.76 38.3061 62.8242 38.3061C61.8883 38.3061 61.1291 37.5473 61.1291 36.611C61.1291 35.675 61.8883 34.916 62.8242 34.916ZM57.7399 34.916C58.6758 34.916 59.4342 35.675 59.4342 36.611C59.4342 37.5473 58.6758 38.3061 57.7399 38.3061C56.8034 38.3061 56.0449 37.5473 56.0449 36.611C56.045 35.675 56.8035 34.916 57.7399 34.916ZM26.9106 66.9697V43.3527H73.0894V52.5586C72.879 52.2573 72.5862 52.0085 72.2236 51.8548L69.4027 50.6608C69.1516 50.5543 68.8867 50.5004 68.6153 50.5004C67.8003 50.5004 67.0686 50.9848 66.7511 51.7347L66.5797 52.1396C65.317 52.1573 64.0644 52.4482 62.9221 52.9871L62.5902 52.6987C62.4295 52.5594 62.2482 52.4468 62.0521 52.3639C61.8002 52.2573 61.5346 52.2032 61.2624 52.2032C60.6772 52.2032 60.121 52.4575 59.736 52.901L57.7284 55.2157C57.375 55.6243 57.2009 56.1454 57.2384 56.6847C57.2774 57.224 57.5236 57.7158 57.9314 58.0688L58.2621 58.3559C57.8851 59.5669 57.7745 60.8436 57.9385 62.0978L57.5623 62.3241C56.607 62.8988 56.2976 64.1444 56.8728 65.101L58.0797 67.1052H27.0461C26.9714 67.1052 26.9106 67.0445 26.9106 66.9697Z" fill="#FAC14D"/>
</g>
<defs>
<clipPath id="clip0_2:442">
<rect width="52" height="52" fill="white" transform="translate(24 24)"/>
</clipPath>
</defs>
</svg>
