<svg width="312" height="115" viewBox="0 0 312 115" fill="none" xmlns="http://www.w3.org/2000/svg">
<path d="M48.35 39.9V46.75H39.05V75H30.5V46.75H21.2V39.9H48.35ZM65.341 75.4C62.6077 75.4 60.141 74.8167 57.941 73.65C55.7743 72.4833 54.0577 70.8167 52.791 68.65C51.5577 66.4833 50.941 63.95 50.941 61.05C50.941 58.1833 51.5743 55.6667 52.841 53.5C54.1077 51.3 55.841 49.6167 58.041 48.45C60.241 47.2833 62.7077 46.7 65.441 46.7C68.1743 46.7 70.641 47.2833 72.841 48.45C75.041 49.6167 76.7744 51.3 78.041 53.5C79.3077 55.6667 79.941 58.1833 79.941 61.05C79.941 63.9167 79.291 66.45 77.991 68.65C76.7243 70.8167 74.9743 72.4833 72.741 73.65C70.541 74.8167 68.0744 75.4 65.341 75.4ZM65.341 68C66.9743 68 68.3577 67.4 69.491 66.2C70.6577 65 71.241 63.2833 71.241 61.05C71.241 58.8167 70.6743 57.1 69.541 55.9C68.441 54.7 67.0743 54.1 65.441 54.1C63.7743 54.1 62.391 54.7 61.291 55.9C60.191 57.0667 59.641 58.7833 59.641 61.05C59.641 63.2833 60.1743 65 61.241 66.2C62.341 67.4 63.7077 68 65.341 68ZM93.027 51.05C93.8603 49.75 95.0103 48.7 96.477 47.9C97.9436 47.1 99.6603 46.7 101.627 46.7C103.927 46.7 106.01 47.2833 107.877 48.45C109.744 49.6167 111.21 51.2833 112.277 53.45C113.377 55.6167 113.927 58.1333 113.927 61C113.927 63.8667 113.377 66.4 112.277 68.6C111.21 70.7667 109.744 72.45 107.877 73.65C106.01 74.8167 103.927 75.4 101.627 75.4C99.6936 75.4 97.977 75 96.477 74.2C95.0103 73.4 93.8603 72.3667 93.027 71.1V88.3H84.477V47.1H93.027V51.05ZM105.227 61C105.227 58.8667 104.627 57.2 103.427 56C102.26 54.7667 100.81 54.15 99.077 54.15C97.377 54.15 95.927 54.7667 94.727 56C93.5603 57.2333 92.977 58.9167 92.977 61.05C92.977 63.1833 93.5603 64.8667 94.727 66.1C95.927 67.3333 97.377 67.95 99.077 67.95C100.777 67.95 102.227 67.3333 103.427 66.1C104.627 64.8333 105.227 63.1333 105.227 61ZM141.708 75.35C139.142 75.35 136.842 74.9333 134.808 74.1C132.775 73.2667 131.142 72.0333 129.908 70.4C128.708 68.7667 128.075 66.8 128.008 64.5H137.108C137.242 65.8 137.692 66.8 138.458 67.5C139.225 68.1667 140.225 68.5 141.458 68.5C142.725 68.5 143.725 68.2167 144.458 67.65C145.192 67.05 145.558 66.2333 145.558 65.2C145.558 64.3333 145.258 63.6167 144.658 63.05C144.092 62.4833 143.375 62.0167 142.508 61.65C141.675 61.2833 140.475 60.8667 138.908 60.4C136.642 59.7 134.792 59 133.358 58.3C131.925 57.6 130.692 56.5667 129.658 55.2C128.625 53.8333 128.108 52.05 128.108 49.85C128.108 46.5833 129.292 44.0333 131.658 42.2C134.025 40.3333 137.108 39.4 140.908 39.4C144.775 39.4 147.892 40.3333 150.258 42.2C152.625 44.0333 153.892 46.6 154.058 49.9H144.808C144.742 48.7667 144.325 47.8833 143.558 47.25C142.792 46.5833 141.808 46.25 140.608 46.25C139.575 46.25 138.742 46.5333 138.108 47.1C137.475 47.6333 137.158 48.4167 137.158 49.45C137.158 50.5833 137.692 51.4667 138.758 52.1C139.825 52.7333 141.492 53.4167 143.758 54.15C146.025 54.9167 147.858 55.65 149.258 56.35C150.692 57.05 151.925 58.0667 152.958 59.4C153.992 60.7333 154.508 62.45 154.508 64.55C154.508 66.55 153.992 68.3667 152.958 70C151.958 71.6333 150.492 72.9333 148.558 73.9C146.625 74.8667 144.342 75.35 141.708 75.35ZM175.32 67.75V75H170.97C167.87 75 165.453 74.25 163.72 72.75C161.987 71.2167 161.12 68.7333 161.12 65.3V54.2H157.72V47.1H161.12V40.3H169.67V47.1H175.27V54.2H169.67V65.4C169.67 66.2333 169.87 66.8333 170.27 67.2C170.67 67.5667 171.337 67.75 172.27 67.75H175.32ZM207.632 47.1V75H199.082V71.2C198.216 72.4333 197.032 73.4333 195.532 74.2C194.066 74.9333 192.432 75.3 190.632 75.3C188.499 75.3 186.616 74.8333 184.982 73.9C183.349 72.9333 182.082 71.55 181.182 69.75C180.282 67.95 179.832 65.8333 179.832 63.4V47.1H188.332V62.25C188.332 64.1167 188.816 65.5667 189.782 66.6C190.749 67.6333 192.049 68.15 193.682 68.15C195.349 68.15 196.666 67.6333 197.632 66.6C198.599 65.5667 199.082 64.1167 199.082 62.25V47.1H207.632ZM212.074 61C212.074 58.1333 212.607 55.6167 213.674 53.45C214.774 51.2833 216.257 49.6167 218.124 48.45C219.99 47.2833 222.074 46.7 224.374 46.7C226.207 46.7 227.874 47.0833 229.374 47.85C230.907 48.6167 232.107 49.65 232.974 50.95V38H241.524V75H232.974V71C232.174 72.3333 231.024 73.4 229.524 74.2C228.057 75 226.34 75.4 224.374 75.4C222.074 75.4 219.99 74.8167 218.124 73.65C216.257 72.45 214.774 70.7667 213.674 68.6C212.607 66.4 212.074 63.8667 212.074 61ZM232.974 61.05C232.974 58.9167 232.374 57.2333 231.174 56C230.007 54.7667 228.574 54.15 226.874 54.15C225.174 54.15 223.724 54.7667 222.524 56C221.357 57.2 220.774 58.8667 220.774 61C220.774 63.1333 221.357 64.8333 222.524 66.1C223.724 67.3333 225.174 67.95 226.874 67.95C228.574 67.95 230.007 67.3333 231.174 66.1C232.374 64.8667 232.974 63.1833 232.974 61.05ZM252.009 44.2C250.509 44.2 249.276 43.7667 248.309 42.9C247.376 42 246.909 40.9 246.909 39.6C246.909 38.2667 247.376 37.1667 248.309 36.3C249.276 35.4 250.509 34.95 252.009 34.95C253.476 34.95 254.676 35.4 255.609 36.3C256.576 37.1667 257.059 38.2667 257.059 39.6C257.059 40.9 256.576 42 255.609 42.9C254.676 43.7667 253.476 44.2 252.009 44.2ZM256.259 47.1V75H247.709V47.1H256.259ZM275.155 75.4C272.422 75.4 269.955 74.8167 267.755 73.65C265.589 72.4833 263.872 70.8167 262.605 68.65C261.372 66.4833 260.755 63.95 260.755 61.05C260.755 58.1833 261.389 55.6667 262.655 53.5C263.922 51.3 265.655 49.6167 267.855 48.45C270.055 47.2833 272.522 46.7 275.255 46.7C277.989 46.7 280.455 47.2833 282.655 48.45C284.855 49.6167 286.589 51.3 287.855 53.5C289.122 55.6667 289.755 58.1833 289.755 61.05C289.755 63.9167 289.105 66.45 287.805 68.65C286.539 70.8167 284.789 72.4833 282.555 73.65C280.355 74.8167 277.889 75.4 275.155 75.4ZM275.155 68C276.789 68 278.172 67.4 279.305 66.2C280.472 65 281.055 63.2833 281.055 61.05C281.055 58.8167 280.489 57.1 279.355 55.9C278.255 54.7 276.889 54.1 275.255 54.1C273.589 54.1 272.205 54.7 271.105 55.9C270.005 57.0667 269.455 58.7833 269.455 61.05C269.455 63.2833 269.989 65 271.055 66.2C272.155 67.4 273.522 68 275.155 68Z" fill="#898798" fill-opacity="0.5"/>
</svg>
