<svg width="424" height="115" viewBox="0 0 424 115" fill="none" xmlns="http://www.w3.org/2000/svg">
<path d="M35.8 75.35C33.2333 75.35 30.9333 74.9333 28.9 74.1C26.8667 73.2667 25.2333 72.0333 24 70.4C22.8 68.7667 22.1667 66.8 22.1 64.5H31.2C31.3333 65.8 31.7833 66.8 32.55 67.5C33.3167 68.1667 34.3167 68.5 35.55 68.5C36.8167 68.5 37.8167 68.2167 38.55 67.65C39.2833 67.05 39.65 66.2333 39.65 65.2C39.65 64.3333 39.35 63.6167 38.75 63.05C38.1833 62.4833 37.4667 62.0167 36.6 61.65C35.7667 61.2833 34.5667 60.8667 33 60.4C30.7333 59.7 28.8833 59 27.45 58.3C26.0167 57.6 24.7833 56.5667 23.75 55.2C22.7167 53.8333 22.2 52.05 22.2 49.85C22.2 46.5833 23.3833 44.0333 25.75 42.2C28.1167 40.3333 31.2 39.4 35 39.4C38.8667 39.4 41.9833 40.3333 44.35 42.2C46.7167 44.0333 47.9833 46.6 48.15 49.9H38.9C38.8333 48.7667 38.4167 47.8833 37.65 47.25C36.8833 46.5833 35.9 46.25 34.7 46.25C33.6667 46.25 32.8333 46.5333 32.2 47.1C31.5667 47.6333 31.25 48.4167 31.25 49.45C31.25 50.5833 31.7833 51.4667 32.85 52.1C33.9167 52.7333 35.5833 53.4167 37.85 54.15C40.1167 54.9167 41.95 55.65 43.35 56.35C44.7833 57.05 46.0167 58.0667 47.05 59.4C48.0833 60.7333 48.6 62.45 48.6 64.55C48.6 66.55 48.0833 68.3667 47.05 70C46.05 71.6333 44.5833 72.9333 42.65 73.9C40.7167 74.8667 38.4333 75.35 35.8 75.35ZM58.1617 44.2C56.6617 44.2 55.4284 43.7667 54.4617 42.9C53.5284 42 53.0617 40.9 53.0617 39.6C53.0617 38.2667 53.5284 37.1667 54.4617 36.3C55.4284 35.4 56.6617 34.95 58.1617 34.95C59.6284 34.95 60.8284 35.4 61.7617 36.3C62.7284 37.1667 63.2117 38.2667 63.2117 39.6C63.2117 40.9 62.7284 42 61.7617 42.9C60.8284 43.7667 59.6284 44.2 58.1617 44.2ZM62.4117 47.1V75H53.8617V47.1H62.4117ZM77.1578 38V75H68.6078V38H77.1578ZM91.9039 38V75H83.3539V38H91.9039ZM102.4 44.2C100.9 44.2 99.6667 43.7667 98.7 42.9C97.7667 42 97.3 40.9 97.3 39.6C97.3 38.2667 97.7667 37.1667 98.7 36.3C99.6667 35.4 100.9 34.95 102.4 34.95C103.867 34.95 105.067 35.4 106 36.3C106.967 37.1667 107.45 38.2667 107.45 39.6C107.45 40.9 106.967 42 106 42.9C105.067 43.7667 103.867 44.2 102.4 44.2ZM106.65 47.1V75H98.1V47.1H106.65ZM139.146 60.6C139.146 61.4 139.096 62.2333 138.996 63.1H119.646C119.779 64.8333 120.329 66.1667 121.296 67.1C122.296 68 123.513 68.45 124.946 68.45C127.079 68.45 128.563 67.55 129.396 65.75H138.496C138.029 67.5833 137.179 69.2333 135.946 70.7C134.746 72.1667 133.229 73.3167 131.396 74.15C129.563 74.9833 127.513 75.4 125.246 75.4C122.513 75.4 120.079 74.8167 117.946 73.65C115.813 72.4833 114.146 70.8167 112.946 68.65C111.746 66.4833 111.146 63.95 111.146 61.05C111.146 58.15 111.729 55.6167 112.896 53.45C114.096 51.2833 115.763 49.6167 117.896 48.45C120.029 47.2833 122.479 46.7 125.246 46.7C127.946 46.7 130.346 47.2667 132.446 48.4C134.546 49.5333 136.179 51.15 137.346 53.25C138.546 55.35 139.146 57.8 139.146 60.6ZM130.396 58.35C130.396 56.8833 129.896 55.7167 128.896 54.85C127.896 53.9833 126.646 53.55 125.146 53.55C123.713 53.55 122.496 53.9667 121.496 54.8C120.529 55.6333 119.929 56.8167 119.696 58.35H130.396ZM194.002 39.9V75H185.452V53.95L177.602 75H170.702L162.802 53.9V75H154.252V39.9H164.352L174.202 64.2L183.952 39.9H194.002ZM226.451 60.6C226.451 61.4 226.401 62.2333 226.301 63.1H206.951C207.084 64.8333 207.634 66.1667 208.601 67.1C209.601 68 210.817 68.45 212.251 68.45C214.384 68.45 215.867 67.55 216.701 65.75H225.801C225.334 67.5833 224.484 69.2333 223.251 70.7C222.051 72.1667 220.534 73.3167 218.701 74.15C216.867 74.9833 214.817 75.4 212.551 75.4C209.817 75.4 207.384 74.8167 205.251 73.65C203.117 72.4833 201.451 70.8167 200.251 68.65C199.051 66.4833 198.451 63.95 198.451 61.05C198.451 58.15 199.034 55.6167 200.201 53.45C201.401 51.2833 203.067 49.6167 205.201 48.45C207.334 47.2833 209.784 46.7 212.551 46.7C215.251 46.7 217.651 47.2667 219.751 48.4C221.851 49.5333 223.484 51.15 224.651 53.25C225.851 55.35 226.451 57.8 226.451 60.6ZM217.701 58.35C217.701 56.8833 217.201 55.7167 216.201 54.85C215.201 53.9833 213.951 53.55 212.451 53.55C211.017 53.55 209.801 53.9667 208.801 54.8C207.834 55.6333 207.234 56.8167 207.001 58.35H217.701ZM241.561 46.7C243.528 46.7 245.245 47.1 246.711 47.9C248.211 48.7 249.361 49.75 250.161 51.05V47.1H258.711V74.95C258.711 77.5167 258.195 79.8333 257.161 81.9C256.161 84 254.611 85.6667 252.511 86.9C250.445 88.1333 247.861 88.75 244.761 88.75C240.628 88.75 237.278 87.7667 234.711 85.8C232.145 83.8667 230.678 81.2333 230.311 77.9H238.761C239.028 78.9667 239.661 79.8 240.661 80.4C241.661 81.0333 242.895 81.35 244.361 81.35C246.128 81.35 247.528 80.8333 248.561 79.8C249.628 78.8 250.161 77.1833 250.161 74.95V71C249.328 72.3 248.178 73.3667 246.711 74.2C245.245 75 243.528 75.4 241.561 75.4C239.261 75.4 237.178 74.8167 235.311 73.65C233.445 72.45 231.961 70.7667 230.861 68.6C229.795 66.4 229.261 63.8667 229.261 61C229.261 58.1333 229.795 55.6167 230.861 53.45C231.961 51.2833 233.445 49.6167 235.311 48.45C237.178 47.2833 239.261 46.7 241.561 46.7ZM250.161 61.05C250.161 58.9167 249.561 57.2333 248.361 56C247.195 54.7667 245.761 54.15 244.061 54.15C242.361 54.15 240.911 54.7667 239.711 56C238.545 57.2 237.961 58.8667 237.961 61C237.961 63.1333 238.545 64.8333 239.711 66.1C240.911 67.3333 242.361 67.95 244.061 67.95C245.761 67.95 247.195 67.3333 248.361 66.1C249.561 64.8667 250.161 63.1833 250.161 61.05ZM263.197 61C263.197 58.1333 263.73 55.6167 264.797 53.45C265.897 51.2833 267.38 49.6167 269.247 48.45C271.114 47.2833 273.197 46.7 275.497 46.7C277.464 46.7 279.18 47.1 280.647 47.9C282.147 48.7 283.297 49.75 284.097 51.05V47.1H292.647V75H284.097V71.05C283.264 72.35 282.097 73.4 280.597 74.2C279.13 75 277.414 75.4 275.447 75.4C273.18 75.4 271.114 74.8167 269.247 73.65C267.38 72.45 265.897 70.7667 264.797 68.6C263.73 66.4 263.197 63.8667 263.197 61ZM284.097 61.05C284.097 58.9167 283.497 57.2333 282.297 56C281.13 54.7667 279.697 54.15 277.997 54.15C276.297 54.15 274.847 54.7667 273.647 56C272.48 57.2 271.897 58.8667 271.897 61C271.897 63.1333 272.48 64.8333 273.647 66.1C274.847 67.3333 276.297 67.95 277.997 67.95C279.697 67.95 281.13 67.3333 282.297 66.1C283.497 64.8667 284.097 63.1833 284.097 61.05ZM307.382 51.05C308.216 49.75 309.366 48.7 310.832 47.9C312.299 47.1 314.016 46.7 315.982 46.7C318.282 46.7 320.366 47.2833 322.232 48.45C324.099 49.6167 325.566 51.2833 326.632 53.45C327.732 55.6167 328.282 58.1333 328.282 61C328.282 63.8667 327.732 66.4 326.632 68.6C325.566 70.7667 324.099 72.45 322.232 73.65C320.366 74.8167 318.282 75.4 315.982 75.4C314.049 75.4 312.332 75 310.832 74.2C309.366 73.4 308.216 72.3667 307.382 71.1V88.3H298.832V47.1H307.382V51.05ZM319.582 61C319.582 58.8667 318.982 57.2 317.782 56C316.616 54.7667 315.166 54.15 313.432 54.15C311.732 54.15 310.282 54.7667 309.082 56C307.916 57.2333 307.332 58.9167 307.332 61.05C307.332 63.1833 307.916 64.8667 309.082 66.1C310.282 67.3333 311.732 67.95 313.432 67.95C315.132 67.95 316.582 67.3333 317.782 66.1C318.982 64.8333 319.582 63.1333 319.582 61ZM345.468 75.4C342.735 75.4 340.268 74.8167 338.068 73.65C335.901 72.4833 334.185 70.8167 332.918 68.65C331.685 66.4833 331.068 63.95 331.068 61.05C331.068 58.1833 331.701 55.6667 332.968 53.5C334.235 51.3 335.968 49.6167 338.168 48.45C340.368 47.2833 342.835 46.7 345.568 46.7C348.301 46.7 350.768 47.2833 352.968 48.45C355.168 49.6167 356.901 51.3 358.168 53.5C359.435 55.6667 360.068 58.1833 360.068 61.05C360.068 63.9167 359.418 66.45 358.118 68.65C356.851 70.8167 355.101 72.4833 352.868 73.65C350.668 74.8167 348.201 75.4 345.468 75.4ZM345.468 68C347.101 68 348.485 67.4 349.618 66.2C350.785 65 351.368 63.2833 351.368 61.05C351.368 58.8167 350.801 57.1 349.668 55.9C348.568 54.7 347.201 54.1 345.568 54.1C343.901 54.1 342.518 54.7 341.418 55.9C340.318 57.0667 339.768 58.7833 339.768 61.05C339.768 63.2833 340.301 65 341.368 66.2C342.468 67.4 343.835 68 345.468 68ZM373.154 51.75C374.154 50.2167 375.404 49.0167 376.904 48.15C378.404 47.25 380.071 46.8 381.904 46.8V55.85H379.554C377.421 55.85 375.821 56.3167 374.754 57.25C373.687 58.15 373.154 59.75 373.154 62.05V75H364.604V47.1H373.154V51.75ZM401.541 67.75V75H397.191C394.091 75 391.674 74.25 389.941 72.75C388.207 71.2167 387.341 68.7333 387.341 65.3V54.2H383.941V47.1H387.341V40.3H395.891V47.1H401.491V54.2H395.891V65.4C395.891 66.2333 396.091 66.8333 396.491 67.2C396.891 67.5667 397.557 67.75 398.491 67.75H401.541Z" fill="#898798" fill-opacity="0.5"/>
</svg>
