<svg width="360" height="115" viewBox="0 0 360 115" fill="none" xmlns="http://www.w3.org/2000/svg">
<path d="M53.2 39.9L41.05 63.4V75H32.5V63.4L20.35 39.9H30.05L36.85 54.6L43.6 39.9H53.2ZM69.3449 75.4C66.6116 75.4 64.1449 74.8167 61.9449 73.65C59.7783 72.4833 58.0616 70.8167 56.7949 68.65C55.5616 66.4833 54.9449 63.95 54.9449 61.05C54.9449 58.1833 55.5783 55.6667 56.8449 53.5C58.1116 51.3 59.8449 49.6167 62.0449 48.45C64.2449 47.2833 66.7116 46.7 69.4449 46.7C72.1783 46.7 74.6449 47.2833 76.8449 48.45C79.0449 49.6167 80.7783 51.3 82.0449 53.5C83.3116 55.6667 83.9449 58.1833 83.9449 61.05C83.9449 63.9167 83.2949 66.45 81.9949 68.65C80.7283 70.8167 78.9783 72.4833 76.7449 73.65C74.5449 74.8167 72.0783 75.4 69.3449 75.4ZM69.3449 68C70.9783 68 72.3616 67.4 73.4949 66.2C74.6616 65 75.2449 63.2833 75.2449 61.05C75.2449 58.8167 74.6783 57.1 73.5449 55.9C72.4449 54.7 71.0783 54.1 69.4449 54.1C67.7783 54.1 66.3949 54.7 65.2949 55.9C64.1949 57.0667 63.6449 58.7833 63.6449 61.05C63.6449 63.2833 64.1783 65 65.2449 66.2C66.3449 67.4 67.7116 68 69.3449 68ZM99.8309 75.4C97.3975 75.4 95.2309 74.9833 93.3309 74.15C91.4309 73.3167 89.9309 72.1833 88.8309 70.75C87.7309 69.2833 87.1142 67.65 86.9809 65.85H95.4309C95.5309 66.8167 95.9809 67.6 96.7809 68.2C97.5809 68.8 98.5642 69.1 99.7309 69.1C100.798 69.1 101.614 68.9 102.181 68.5C102.781 68.0667 103.081 67.5167 103.081 66.85C103.081 66.05 102.664 65.4667 101.831 65.1C100.998 64.7 99.6475 64.2667 97.7809 63.8C95.7809 63.3333 94.1142 62.85 92.7809 62.35C91.4475 61.8167 90.2975 61 89.3309 59.9C88.3642 58.7667 87.8809 57.25 87.8809 55.35C87.8809 53.75 88.3142 52.3 89.1809 51C90.0809 49.6667 91.3809 48.6167 93.0809 47.85C94.8142 47.0833 96.8642 46.7 99.2309 46.7C102.731 46.7 105.481 47.5667 107.481 49.3C109.514 51.0333 110.681 53.3333 110.981 56.2H103.081C102.948 55.2333 102.514 54.4667 101.781 53.9C101.081 53.3333 100.148 53.05 98.9809 53.05C97.9809 53.05 97.2142 53.25 96.6809 53.65C96.1475 54.0167 95.8809 54.5333 95.8809 55.2C95.8809 56 96.2975 56.6 97.1309 57C97.9975 57.4 99.3309 57.8 101.131 58.2C103.198 58.7333 104.881 59.2667 106.181 59.8C107.481 60.3 108.614 61.1333 109.581 62.3C110.581 63.4333 111.098 64.9667 111.131 66.9C111.131 68.5333 110.664 70 109.731 71.3C108.831 72.5667 107.514 73.5667 105.781 74.3C104.081 75.0333 102.098 75.4 99.8309 75.4ZM133.512 46.8C136.712 46.8 139.278 47.8667 141.212 50C143.145 52.1 144.112 55 144.112 58.7V75H135.612V59.85C135.612 57.9833 135.128 56.5333 134.162 55.5C133.195 54.4667 131.895 53.95 130.262 53.95C128.628 53.95 127.328 54.4667 126.362 55.5C125.395 56.5333 124.912 57.9833 124.912 59.85V75H116.362V38H124.912V50.85C125.778 49.6167 126.962 48.6333 128.462 47.9C129.962 47.1667 131.645 46.8 133.512 46.8ZM169.199 38V75H160.649V38H169.199ZM179.695 44.2C178.195 44.2 176.962 43.7667 175.995 42.9C175.062 42 174.595 40.9 174.595 39.6C174.595 38.2667 175.062 37.1667 175.995 36.3C176.962 35.4 178.195 34.95 179.695 34.95C181.162 34.95 182.362 35.4 183.295 36.3C184.262 37.1667 184.745 38.2667 184.745 39.6C184.745 40.9 184.262 42 183.295 42.9C182.362 43.7667 181.162 44.2 179.695 44.2ZM183.945 47.1V75H175.395V47.1H183.945ZM225.741 46.8C229.208 46.8 231.958 47.85 233.991 49.95C236.058 52.05 237.091 54.9667 237.091 58.7V75H228.591V59.85C228.591 58.05 228.108 56.6667 227.141 55.7C226.208 54.7 224.908 54.2 223.241 54.2C221.574 54.2 220.258 54.7 219.291 55.7C218.358 56.6667 217.891 58.05 217.891 59.85V75H209.391V59.85C209.391 58.05 208.908 56.6667 207.941 55.7C207.008 54.7 205.708 54.2 204.041 54.2C202.374 54.2 201.058 54.7 200.091 55.7C199.158 56.6667 198.691 58.05 198.691 59.85V75H190.141V47.1H198.691V50.6C199.558 49.4333 200.691 48.5167 202.091 47.85C203.491 47.15 205.074 46.8 206.841 46.8C208.941 46.8 210.808 47.25 212.441 48.15C214.108 49.05 215.408 50.3333 216.341 52C217.308 50.4667 218.624 49.2167 220.291 48.25C221.958 47.2833 223.774 46.8 225.741 46.8ZM247.371 44.2C245.871 44.2 244.637 43.7667 243.671 42.9C242.737 42 242.271 40.9 242.271 39.6C242.271 38.2667 242.737 37.1667 243.671 36.3C244.637 35.4 245.871 34.95 247.371 34.95C248.837 34.95 250.037 35.4 250.971 36.3C251.937 37.1667 252.421 38.2667 252.421 39.6C252.421 40.9 251.937 42 250.971 42.9C250.037 43.7667 248.837 44.2 247.371 44.2ZM251.621 47.1V75H243.071V47.1H251.621ZM273.367 67.75V75H269.017C265.917 75 263.5 74.25 261.767 72.75C260.033 71.2167 259.167 68.7333 259.167 65.3V54.2H255.767V47.1H259.167V40.3H267.717V47.1H273.317V54.2H267.717V65.4C267.717 66.2333 267.917 66.8333 268.317 67.2C268.717 67.5667 269.383 67.75 270.317 67.75H273.367ZM304.429 60.6C304.429 61.4 304.379 62.2333 304.279 63.1H284.929C285.063 64.8333 285.613 66.1667 286.579 67.1C287.579 68 288.796 68.45 290.229 68.45C292.363 68.45 293.846 67.55 294.679 65.75H303.779C303.313 67.5833 302.463 69.2333 301.229 70.7C300.029 72.1667 298.513 73.3167 296.679 74.15C294.846 74.9833 292.796 75.4 290.529 75.4C287.796 75.4 285.363 74.8167 283.229 73.65C281.096 72.4833 279.429 70.8167 278.229 68.65C277.029 66.4833 276.429 63.95 276.429 61.05C276.429 58.15 277.013 55.6167 278.179 53.45C279.379 51.2833 281.046 49.6167 283.179 48.45C285.313 47.2833 287.763 46.7 290.529 46.7C293.229 46.7 295.629 47.2667 297.729 48.4C299.829 49.5333 301.463 51.15 302.629 53.25C303.829 55.35 304.429 57.8 304.429 60.6ZM295.679 58.35C295.679 56.8833 295.179 55.7167 294.179 54.85C293.179 53.9833 291.929 53.55 290.429 53.55C288.996 53.55 287.779 53.9667 286.779 54.8C285.813 55.6333 285.213 56.8167 284.979 58.35H295.679ZM307.24 61C307.24 58.1333 307.773 55.6167 308.84 53.45C309.94 51.2833 311.423 49.6167 313.29 48.45C315.157 47.2833 317.24 46.7 319.54 46.7C321.373 46.7 323.04 47.0833 324.54 47.85C326.073 48.6167 327.273 49.65 328.14 50.95V38H336.69V75H328.14V71C327.34 72.3333 326.19 73.4 324.69 74.2C323.223 75 321.507 75.4 319.54 75.4C317.24 75.4 315.157 74.8167 313.29 73.65C311.423 72.45 309.94 70.7667 308.84 68.6C307.773 66.4 307.24 63.8667 307.24 61ZM328.14 61.05C328.14 58.9167 327.54 57.2333 326.34 56C325.173 54.7667 323.74 54.15 322.04 54.15C320.34 54.15 318.89 54.7667 317.69 56C316.523 57.2 315.94 58.8667 315.94 61C315.94 63.1333 316.523 64.8333 317.69 66.1C318.89 67.3333 320.34 67.95 322.04 67.95C323.74 67.95 325.173 67.3333 326.34 66.1C327.54 64.8667 328.14 63.1833 328.14 61.05Z" fill="#898798" fill-opacity="0.5"/>
</svg>
