<svg width="229" height="115" viewBox="0 0 229 115" fill="none" xmlns="http://www.w3.org/2000/svg">
<path d="M44.35 57C46.3833 57.4333 48.0167 58.45 49.25 60.05C50.4833 61.6167 51.1 63.4167 51.1 65.45C51.1 68.3833 50.0667 70.7167 48 72.45C45.9667 74.15 43.1167 75 39.45 75H23.1V39.9H38.9C42.4667 39.9 45.25 40.7167 47.25 42.35C49.2833 43.9833 50.3 46.2 50.3 49C50.3 51.0667 49.75 52.7833 48.65 54.15C47.5833 55.5167 46.15 56.4667 44.35 57ZM31.65 54.1H37.25C38.65 54.1 39.7167 53.8 40.45 53.2C41.2167 52.5667 41.6 51.65 41.6 50.45C41.6 49.25 41.2167 48.3333 40.45 47.7C39.7167 47.0667 38.65 46.75 37.25 46.75H31.65V54.1ZM37.95 68.1C39.3833 68.1 40.4833 67.7833 41.25 67.15C42.05 66.4833 42.45 65.5333 42.45 64.3C42.45 63.0667 42.0333 62.1 41.2 61.4C40.4 60.7 39.2833 60.35 37.85 60.35H31.65V68.1H37.95ZM60.359 44.2C58.859 44.2 57.6257 43.7667 56.659 42.9C55.7257 42 55.259 40.9 55.259 39.6C55.259 38.2667 55.7257 37.1667 56.659 36.3C57.6257 35.4 58.859 34.95 60.359 34.95C61.8257 34.95 63.0257 35.4 63.959 36.3C64.9257 37.1667 65.409 38.2667 65.409 39.6C65.409 40.9 64.9257 42 63.959 42.9C63.0257 43.7667 61.8257 44.2 60.359 44.2ZM64.609 47.1V75H56.059V47.1H64.609ZM78.8051 67.95H90.9051V75H69.2551V68.2L80.8551 54.15H69.3551V47.1H90.6551V53.9L78.8051 67.95ZM112.61 46.8C115.876 46.8 118.476 47.8667 120.41 50C122.376 52.1 123.36 55 123.36 58.7V75H114.86V59.85C114.86 57.9833 114.376 56.5333 113.41 55.5C112.443 54.4667 111.143 53.95 109.51 53.95C107.876 53.95 106.576 54.4667 105.61 55.5C104.643 56.5333 104.16 57.9833 104.16 59.85V75H95.6098V47.1H104.16V50.8C105.026 49.5667 106.193 48.6 107.66 47.9C109.126 47.1667 110.776 46.8 112.61 46.8ZM156.851 47.1V75H148.301V71.2C147.435 72.4333 146.251 73.4333 144.751 74.2C143.285 74.9333 141.651 75.3 139.851 75.3C137.718 75.3 135.835 74.8333 134.201 73.9C132.568 72.9333 131.301 71.55 130.401 69.75C129.501 67.95 129.051 65.8333 129.051 63.4V47.1H137.551V62.25C137.551 64.1167 138.035 65.5667 139.001 66.6C139.968 67.6333 141.268 68.15 142.901 68.15C144.568 68.15 145.885 67.6333 146.851 66.6C147.818 65.5667 148.301 64.1167 148.301 62.25V47.1H156.851ZM178.543 67.75V75H174.193C171.093 75 168.676 74.25 166.943 72.75C165.209 71.2167 164.343 68.7333 164.343 65.3V54.2H160.943V47.1H164.343V40.3H172.893V47.1H178.493V54.2H172.893V65.4C172.893 66.2333 173.093 66.8333 173.493 67.2C173.893 67.5667 174.559 67.75 175.493 67.75H178.543ZM194.655 75.4C192.222 75.4 190.055 74.9833 188.155 74.15C186.255 73.3167 184.755 72.1833 183.655 70.75C182.555 69.2833 181.938 67.65 181.805 65.85H190.255C190.355 66.8167 190.805 67.6 191.605 68.2C192.405 68.8 193.388 69.1 194.555 69.1C195.622 69.1 196.438 68.9 197.005 68.5C197.605 68.0667 197.905 67.5167 197.905 66.85C197.905 66.05 197.488 65.4667 196.655 65.1C195.822 64.7 194.472 64.2667 192.605 63.8C190.605 63.3333 188.938 62.85 187.605 62.35C186.272 61.8167 185.122 61 184.155 59.9C183.188 58.7667 182.705 57.25 182.705 55.35C182.705 53.75 183.138 52.3 184.005 51C184.905 49.6667 186.205 48.6167 187.905 47.85C189.638 47.0833 191.688 46.7 194.055 46.7C197.555 46.7 200.305 47.5667 202.305 49.3C204.338 51.0333 205.505 53.3333 205.805 56.2H197.905C197.772 55.2333 197.338 54.4667 196.605 53.9C195.905 53.3333 194.972 53.05 193.805 53.05C192.805 53.05 192.038 53.25 191.505 53.65C190.972 54.0167 190.705 54.5333 190.705 55.2C190.705 56 191.122 56.6 191.955 57C192.822 57.4 194.155 57.8 195.955 58.2C198.022 58.7333 199.705 59.2667 201.005 59.8C202.305 60.3 203.438 61.1333 204.405 62.3C205.405 63.4333 205.922 64.9667 205.955 66.9C205.955 68.5333 205.488 70 204.555 71.3C203.655 72.5667 202.338 73.5667 200.605 74.3C198.905 75.0333 196.922 75.4 194.655 75.4Z" fill="#898798" fill-opacity="0.5"/>
</svg>
