<svg width="323" height="115" viewBox="0 0 323 115" fill="none" xmlns="http://www.w3.org/2000/svg">
<path d="M35.8 75.35C33.2333 75.35 30.9333 74.9333 28.9 74.1C26.8667 73.2667 25.2333 72.0333 24 70.4C22.8 68.7667 22.1667 66.8 22.1 64.5H31.2C31.3333 65.8 31.7833 66.8 32.55 67.5C33.3167 68.1667 34.3167 68.5 35.55 68.5C36.8167 68.5 37.8167 68.2167 38.55 67.65C39.2833 67.05 39.65 66.2333 39.65 65.2C39.65 64.3333 39.35 63.6167 38.75 63.05C38.1833 62.4833 37.4667 62.0167 36.6 61.65C35.7667 61.2833 34.5667 60.8667 33 60.4C30.7333 59.7 28.8833 59 27.45 58.3C26.0167 57.6 24.7833 56.5667 23.75 55.2C22.7167 53.8333 22.2 52.05 22.2 49.85C22.2 46.5833 23.3833 44.0333 25.75 42.2C28.1167 40.3333 31.2 39.4 35 39.4C38.8667 39.4 41.9833 40.3333 44.35 42.2C46.7167 44.0333 47.9833 46.6 48.15 49.9H38.9C38.8333 48.7667 38.4167 47.8833 37.65 47.25C36.8833 46.5833 35.9 46.25 34.7 46.25C33.6667 46.25 32.8333 46.5333 32.2 47.1C31.5667 47.6333 31.25 48.4167 31.25 49.45C31.25 50.5833 31.7833 51.4667 32.85 52.1C33.9167 52.7333 35.5833 53.4167 37.85 54.15C40.1167 54.9167 41.95 55.65 43.35 56.35C44.7833 57.05 46.0167 58.0667 47.05 59.4C48.0833 60.7333 48.6 62.45 48.6 64.55C48.6 66.55 48.0833 68.3667 47.05 70C46.05 71.6333 44.5833 72.9333 42.65 73.9C40.7167 74.8667 38.4333 75.35 35.8 75.35ZM69.4117 67.75V75H65.0617C61.9617 75 59.5451 74.25 57.8117 72.75C56.0784 71.2167 55.2117 68.7333 55.2117 65.3V54.2H51.8117V47.1H55.2117V40.3H63.7617V47.1H69.3617V54.2H63.7617V65.4C63.7617 66.2333 63.9617 66.8333 64.3617 67.2C64.7617 67.5667 65.4284 67.75 66.3617 67.75H69.4117ZM72.4742 61C72.4742 58.1333 73.0076 55.6167 74.0742 53.45C75.1742 51.2833 76.6576 49.6167 78.5242 48.45C80.3909 47.2833 82.4742 46.7 84.7742 46.7C86.7409 46.7 88.4576 47.1 89.9242 47.9C91.4242 48.7 92.5742 49.75 93.3742 51.05V47.1H101.924V75H93.3742V71.05C92.5409 72.35 91.3742 73.4 89.8742 74.2C88.4076 75 86.6909 75.4 84.7242 75.4C82.4576 75.4 80.3909 74.8167 78.5242 73.65C76.6576 72.45 75.1742 70.7667 74.0742 68.6C73.0076 66.4 72.4742 63.8667 72.4742 61ZM93.3742 61.05C93.3742 58.9167 92.7742 57.2333 91.5742 56C90.4076 54.7667 88.9742 54.15 87.2742 54.15C85.5742 54.15 84.1242 54.7667 82.9242 56C81.7576 57.2 81.1742 58.8667 81.1742 61C81.1742 63.1333 81.7576 64.8333 82.9242 66.1C84.1242 67.3333 85.5742 67.95 87.2742 67.95C88.9742 67.95 90.4076 67.3333 91.5742 66.1C92.7742 64.8667 93.3742 63.1833 93.3742 61.05ZM116.66 51.75C117.66 50.2167 118.91 49.0167 120.41 48.15C121.91 47.25 123.576 46.8 125.41 46.8V55.85H123.06C120.926 55.85 119.326 56.3167 118.26 57.25C117.193 58.15 116.66 59.75 116.66 62.05V75H108.11V47.1H116.66V51.75ZM152.792 75.35C150.226 75.35 147.926 74.9333 145.892 74.1C143.859 73.2667 142.226 72.0333 140.992 70.4C139.792 68.7667 139.159 66.8 139.092 64.5H148.192C148.326 65.8 148.776 66.8 149.542 67.5C150.309 68.1667 151.309 68.5 152.542 68.5C153.809 68.5 154.809 68.2167 155.542 67.65C156.276 67.05 156.642 66.2333 156.642 65.2C156.642 64.3333 156.342 63.6167 155.742 63.05C155.176 62.4833 154.459 62.0167 153.592 61.65C152.759 61.2833 151.559 60.8667 149.992 60.4C147.726 59.7 145.876 59 144.442 58.3C143.009 57.6 141.776 56.5667 140.742 55.2C139.709 53.8333 139.192 52.05 139.192 49.85C139.192 46.5833 140.376 44.0333 142.742 42.2C145.109 40.3333 148.192 39.4 151.992 39.4C155.859 39.4 158.976 40.3333 161.342 42.2C163.709 44.0333 164.976 46.6 165.142 49.9H155.892C155.826 48.7667 155.409 47.8833 154.642 47.25C153.876 46.5833 152.892 46.25 151.692 46.25C150.659 46.25 149.826 46.5333 149.192 47.1C148.559 47.6333 148.242 48.4167 148.242 49.45C148.242 50.5833 148.776 51.4667 149.842 52.1C150.909 52.7333 152.576 53.4167 154.842 54.15C157.109 54.9167 158.942 55.65 160.342 56.35C161.776 57.05 163.009 58.0667 164.042 59.4C165.076 60.7333 165.592 62.45 165.592 64.55C165.592 66.55 165.076 68.3667 164.042 70C163.042 71.6333 161.576 72.9333 159.642 73.9C157.709 74.8667 155.426 75.35 152.792 75.35ZM186.404 67.75V75H182.054C178.954 75 176.537 74.25 174.804 72.75C173.071 71.2167 172.204 68.7333 172.204 65.3V54.2H168.804V47.1H172.204V40.3H180.754V47.1H186.354V54.2H180.754V65.4C180.754 66.2333 180.954 66.8333 181.354 67.2C181.754 67.5667 182.421 67.75 183.354 67.75H186.404ZM218.716 47.1V75H210.166V71.2C209.3 72.4333 208.116 73.4333 206.616 74.2C205.15 74.9333 203.516 75.3 201.716 75.3C199.583 75.3 197.7 74.8333 196.066 73.9C194.433 72.9333 193.166 71.55 192.266 69.75C191.366 67.95 190.916 65.8333 190.916 63.4V47.1H199.416V62.25C199.416 64.1167 199.9 65.5667 200.866 66.6C201.833 67.6333 203.133 68.15 204.766 68.15C206.433 68.15 207.75 67.6333 208.716 66.6C209.683 65.5667 210.166 64.1167 210.166 62.25V47.1H218.716ZM223.158 61C223.158 58.1333 223.691 55.6167 224.758 53.45C225.858 51.2833 227.341 49.6167 229.208 48.45C231.074 47.2833 233.158 46.7 235.458 46.7C237.291 46.7 238.958 47.0833 240.458 47.85C241.991 48.6167 243.191 49.65 244.058 50.95V38H252.608V75H244.058V71C243.258 72.3333 242.108 73.4 240.608 74.2C239.141 75 237.424 75.4 235.458 75.4C233.158 75.4 231.074 74.8167 229.208 73.65C227.341 72.45 225.858 70.7667 224.758 68.6C223.691 66.4 223.158 63.8667 223.158 61ZM244.058 61.05C244.058 58.9167 243.458 57.2333 242.258 56C241.091 54.7667 239.658 54.15 237.958 54.15C236.258 54.15 234.808 54.7667 233.608 56C232.441 57.2 231.858 58.8667 231.858 61C231.858 63.1333 232.441 64.8333 233.608 66.1C234.808 67.3333 236.258 67.95 237.958 67.95C239.658 67.95 241.091 67.3333 242.258 66.1C243.458 64.8667 244.058 63.1833 244.058 61.05ZM263.093 44.2C261.593 44.2 260.36 43.7667 259.393 42.9C258.46 42 257.993 40.9 257.993 39.6C257.993 38.2667 258.46 37.1667 259.393 36.3C260.36 35.4 261.593 34.95 263.093 34.95C264.56 34.95 265.76 35.4 266.693 36.3C267.66 37.1667 268.143 38.2667 268.143 39.6C268.143 40.9 267.66 42 266.693 42.9C265.76 43.7667 264.56 44.2 263.093 44.2ZM267.343 47.1V75H258.793V47.1H267.343ZM286.239 75.4C283.506 75.4 281.039 74.8167 278.839 73.65C276.673 72.4833 274.956 70.8167 273.689 68.65C272.456 66.4833 271.839 63.95 271.839 61.05C271.839 58.1833 272.473 55.6667 273.739 53.5C275.006 51.3 276.739 49.6167 278.939 48.45C281.139 47.2833 283.606 46.7 286.339 46.7C289.073 46.7 291.539 47.2833 293.739 48.45C295.939 49.6167 297.673 51.3 298.939 53.5C300.206 55.6667 300.839 58.1833 300.839 61.05C300.839 63.9167 300.189 66.45 298.889 68.65C297.623 70.8167 295.873 72.4833 293.639 73.65C291.439 74.8167 288.973 75.4 286.239 75.4ZM286.239 68C287.873 68 289.256 67.4 290.389 66.2C291.556 65 292.139 63.2833 292.139 61.05C292.139 58.8167 291.573 57.1 290.439 55.9C289.339 54.7 287.973 54.1 286.339 54.1C284.673 54.1 283.289 54.7 282.189 55.9C281.089 57.0667 280.539 58.7833 280.539 61.05C280.539 63.2833 281.073 65 282.139 66.2C283.239 67.4 284.606 68 286.239 68Z" fill="#898798" fill-opacity="0.5"/>
</svg>
