<svg width="232" height="115" viewBox="0 0 232 115" fill="none" xmlns="http://www.w3.org/2000/svg">
<path d="M62.85 39.9V75H54.3V53.95L46.45 75H39.55L31.65 53.9V75H23.1V39.9H33.2L43.05 64.2L52.8 39.9H62.85ZM73.2984 44.2C71.7984 44.2 70.5651 43.7667 69.5984 42.9C68.6651 42 68.1984 40.9 68.1984 39.6C68.1984 38.2667 68.6651 37.1667 69.5984 36.3C70.5651 35.4 71.7984 34.95 73.2984 34.95C74.7651 34.95 75.9651 35.4 76.8984 36.3C77.8651 37.1667 78.3484 38.2667 78.3484 39.6C78.3484 40.9 77.8651 42 76.8984 42.9C75.9651 43.7667 74.7651 44.2 73.2984 44.2ZM77.5484 47.1V75H68.9984V47.1H77.5484ZM112.245 47.1L94.7445 88.25H85.5445L91.9445 74.05L80.5945 47.1H90.1445L96.5945 64.55L102.995 47.1H112.245ZM128.036 75.4C125.303 75.4 122.836 74.8167 120.636 73.65C118.47 72.4833 116.753 70.8167 115.486 68.65C114.253 66.4833 113.636 63.95 113.636 61.05C113.636 58.1833 114.27 55.6667 115.536 53.5C116.803 51.3 118.536 49.6167 120.736 48.45C122.936 47.2833 125.403 46.7 128.136 46.7C130.87 46.7 133.336 47.2833 135.536 48.45C137.736 49.6167 139.47 51.3 140.736 53.5C142.003 55.6667 142.636 58.1833 142.636 61.05C142.636 63.9167 141.986 66.45 140.686 68.65C139.42 70.8167 137.67 72.4833 135.436 73.65C133.236 74.8167 130.77 75.4 128.036 75.4ZM128.036 68C129.67 68 131.053 67.4 132.186 66.2C133.353 65 133.936 63.2833 133.936 61.05C133.936 58.8167 133.37 57.1 132.236 55.9C131.136 54.7 129.77 54.1 128.136 54.1C126.47 54.1 125.086 54.7 123.986 55.9C122.886 57.0667 122.336 58.7833 122.336 61.05C122.336 63.2833 122.87 65 123.936 66.2C125.036 67.4 126.403 68 128.036 68ZM164.322 46.8C167.522 46.8 170.089 47.8667 172.022 50C173.956 52.1 174.922 55 174.922 58.7V75H166.422V59.85C166.422 57.9833 165.939 56.5333 164.972 55.5C164.006 54.4667 162.706 53.95 161.072 53.95C159.439 53.95 158.139 54.4667 157.172 55.5C156.206 56.5333 155.722 57.9833 155.722 59.85V75H147.172V38H155.722V50.85C156.589 49.6167 157.772 48.6333 159.272 47.9C160.772 47.1667 162.456 46.8 164.322 46.8ZM179.164 61C179.164 58.1333 179.697 55.6167 180.764 53.45C181.864 51.2833 183.347 49.6167 185.214 48.45C187.08 47.2833 189.164 46.7 191.464 46.7C193.43 46.7 195.147 47.1 196.614 47.9C198.114 48.7 199.264 49.75 200.064 51.05V47.1H208.614V75H200.064V71.05C199.23 72.35 198.064 73.4 196.564 74.2C195.097 75 193.38 75.4 191.414 75.4C189.147 75.4 187.08 74.8167 185.214 73.65C183.347 72.45 181.864 70.7667 180.764 68.6C179.697 66.4 179.164 63.8667 179.164 61ZM200.064 61.05C200.064 58.9167 199.464 57.2333 198.264 56C197.097 54.7667 195.664 54.15 193.964 54.15C192.264 54.15 190.814 54.7667 189.614 56C188.447 57.2 187.864 58.8667 187.864 61C187.864 63.1333 188.447 64.8333 189.614 66.1C190.814 67.3333 192.264 67.95 193.964 67.95C195.664 67.95 197.097 67.3333 198.264 66.1C199.464 64.8667 200.064 63.1833 200.064 61.05Z" fill="#898798" fill-opacity="0.5"/>
</svg>
